<svg width="431" height="96" viewBox="0 0 431 96" fill="none" xmlns="http://www.w3.org/2000/svg">
<path d="M50.4347 0.16996C50.3869 0.278947 50.2571 0.510547 50.1342 0.701273C50.0181 0.885188 49.7107 1.37562 49.458 1.79114C49.2053 2.19984 48.7341 2.93549 48.4199 3.42593C47.9419 4.16159 47.4433 4.979 46.6306 6.34133C46.5691 6.44351 46.3096 6.86583 46.0432 7.27453C45.5515 8.04424 45.2442 8.52787 44.0968 10.3738C42.8402 12.3969 42.6148 12.7579 42.2528 13.3369C42.0548 13.6571 41.6791 14.2497 41.4264 14.6652C41.1737 15.0739 40.8391 15.6188 40.6752 15.8777C40.5113 16.1297 40.1903 16.6269 39.9649 16.988C39.7395 17.3422 39.4663 17.7781 39.3571 17.9484C39.1727 18.2345 39.1658 18.2754 39.2546 18.4184C39.4732 18.7862 40.5249 20.4278 40.8801 20.9728C41.0918 21.2929 41.6313 22.1444 42.0821 22.8664C42.9016 24.1811 43.687 25.4208 44.1993 26.2246C44.4383 26.5924 45.0939 27.6346 45.4491 28.2068C45.5583 28.3839 46.0159 29.1059 46.8286 30.4001C47.0199 30.6998 47.457 31.3878 47.8053 31.9327C48.1536 32.4777 48.5429 33.1044 48.6726 33.3223C48.8024 33.5335 49.1712 34.1261 49.4922 34.6302C50.1683 35.6928 51.4796 37.7772 52.2377 38.9692C53.2212 40.5291 53.4056 40.822 53.6924 41.2647C53.8495 41.5099 54.027 41.796 54.0885 41.9118C54.1432 42.0208 54.2866 42.232 54.4027 42.3818C54.5188 42.5249 54.6144 42.6816 54.6144 42.7224C54.6144 42.7633 54.5188 42.954 54.4027 43.1379C54.15 43.5534 53.6173 44.4594 53.0436 45.4539C52.8114 45.8626 52.4221 46.5233 52.1899 46.9184C51.9508 47.3135 51.6777 47.8039 51.5752 48.0083C51.4728 48.2126 51.302 48.5055 51.1996 48.6554C51.0971 48.8052 50.8308 49.248 50.6054 49.6431C50.38 50.0381 49.9703 50.7398 49.6971 51.2098C49.4239 51.6798 49.1507 52.1498 49.0961 52.2656C49.0346 52.3746 48.8775 52.6402 48.7409 52.8446C48.5975 53.0489 48.3721 53.4508 48.2287 53.7301C48.0853 54.0094 47.9214 54.3159 47.8531 54.4112C47.7848 54.5066 47.5048 54.9766 47.2248 55.467C46.9448 55.9507 46.412 56.8702 46.0432 57.5105C45.6744 58.144 45.2374 58.8797 45.0734 59.1453C44.8412 59.4996 44.7798 59.6426 44.8276 59.7243C44.8686 59.7788 44.9369 59.8265 44.9915 59.8265C45.9545 59.8129 57.3667 59.7107 60.6108 59.6903L64.9954 59.663L65.1593 59.8129C65.3232 59.9627 65.8969 60.8483 66.5116 61.9041C66.696 62.2242 66.894 62.5307 66.9418 62.5852C66.9896 62.6397 67.0989 62.8236 67.1809 62.9871C67.2628 63.1574 67.4336 63.4503 67.5565 63.6342C67.6794 63.825 68.0687 64.4721 68.4307 65.0715C68.7858 65.6709 69.2502 66.4406 69.4619 66.788C69.6737 67.1286 69.8444 67.4283 69.8444 67.4556C69.8444 67.4828 69.9468 67.6599 70.0766 67.8507C70.302 68.198 71.0806 69.465 71.5177 70.2143C71.743 70.6026 72.1323 71.2497 72.747 72.2578C72.9382 72.5779 73.1841 72.9866 73.2933 73.1774C73.3958 73.3613 73.5802 73.6678 73.7031 73.8585C73.8261 74.0425 74.4749 75.1187 75.1442 76.2358C75.8203 77.3529 76.4896 78.4768 76.6399 78.7221C76.7901 78.9741 77.0633 79.4305 77.2477 79.7438C77.4321 80.0503 77.6438 80.3364 77.7121 80.3705C77.8009 80.4182 79.6244 80.4182 83.3875 80.3705C90.6747 80.2751 100.181 80.1934 100.933 80.2206C101.261 80.2274 101.588 80.2206 101.67 80.1934C101.868 80.1321 101.841 79.9277 101.616 79.846C101.418 79.7711 101.158 79.3896 98.8429 75.7317C98.6585 75.4525 98.2487 74.8054 97.9277 74.2945C97.5999 73.7836 97.1628 73.1024 96.9579 72.7755C96.753 72.4485 96.3706 71.8491 96.1042 71.4404C95.189 70.0168 94.8817 69.5331 93.2768 66.9992C93.1402 66.7812 92.8465 66.318 92.6211 65.957C92.3957 65.6028 92.0816 65.1192 91.9245 64.8808C91.7674 64.6492 91.5284 64.2745 91.3918 64.0497C91.262 63.825 91.0025 63.4094 90.8181 63.1302C90.6337 62.8509 90.3059 62.3332 90.0873 61.979C89.6844 61.3387 88.776 59.9151 88.1955 59.0091C88.0248 58.7435 87.7038 58.2394 87.4784 57.8852C87.0345 57.1904 86.6179 56.5365 85.8393 55.3104C85.2247 54.3499 84.4871 53.1988 83.9817 52.4018C83.326 51.3732 82.1308 49.4864 81.9669 49.2344C81.885 49.105 81.6391 48.7167 81.4137 48.3693C81.1952 48.0287 80.7991 47.402 80.5327 46.9865C79.9317 46.0397 79.5561 45.4471 78.9483 44.5003C78.6819 44.0848 78.1697 43.2742 77.8009 42.6952C77.4321 42.1162 77.036 41.4827 76.913 41.2988C76.7901 41.1081 76.4418 40.5563 76.1276 40.0727C75.8203 39.5822 75.4242 38.9692 75.2466 38.6967C75.0759 38.4243 74.7481 37.9066 74.5227 37.5456C74.2973 37.1845 73.9217 36.5987 73.6895 36.2513C73.4504 35.8971 73.2592 35.5906 73.2592 35.5634C73.2592 35.5429 73.068 35.2296 72.8289 34.8686C72.5899 34.5076 72.2757 34.0239 72.1255 33.7855C71.9821 33.5539 71.7567 33.1997 71.6269 33.0022C71.504 32.8046 71.1625 32.2801 70.8825 31.8306C70.6025 31.381 70.2132 30.768 70.0151 30.4682C69.6805 29.9437 69.141 29.1059 68.4921 28.0842C68.3282 27.8185 67.9458 27.2327 67.6521 26.7695C67.3584 26.3063 67.1126 25.9112 67.1126 25.8772C67.1126 25.8499 67.0169 25.7001 66.9008 25.5434C66.7847 25.3867 66.4501 24.8827 66.1632 24.4195C64.5241 21.8447 62.9807 19.4129 62.8782 19.2631C62.4001 18.5478 61.9904 17.9007 61.9016 17.7304C61.8469 17.6146 61.6352 17.2809 61.4303 16.9811C61.2323 16.6814 60.8976 16.1637 60.6927 15.8368C60.4878 15.503 60.1054 14.8968 59.839 14.4881C59.5795 14.0794 59.1014 13.3301 58.7804 12.8192C58.4595 12.3152 57.9336 11.4909 57.6058 10.9869C57.2779 10.4828 56.9638 9.96513 56.9091 9.8289C56.8545 9.69948 56.5813 9.25672 56.3081 8.85483C56.0418 8.45294 55.5979 7.79903 55.3315 7.39033C55.072 6.98844 54.7646 6.51843 54.6485 6.34814C54.5393 6.17785 54.3071 5.81002 54.1363 5.53755C53.9656 5.26508 53.747 4.9245 53.6514 4.77464C53.5558 4.6316 53.1733 4.03217 52.7977 3.43956C52.4289 2.84694 52.0055 2.18622 51.8689 1.97505C51.7255 1.75708 51.5479 1.46417 51.4659 1.31432C51.384 1.16446 51.2337 0.932867 51.1313 0.803445C51.0289 0.674023 50.8786 0.435612 50.7966 0.272132C50.6259 -0.0616397 50.544 -0.0820713 50.4347 0.16996Z" fill="#0075FF"/>
<path d="M37.4753 12.898C37.3456 12.9525 36.7446 13.1637 36.1436 13.3681C34.6069 13.8789 33.6644 14.2195 32.8312 14.5533C32.4351 14.7099 31.8683 14.9347 31.5677 15.0505C30.6184 15.4184 28.7335 16.2358 27.7432 16.7058C27.2173 16.9578 26.589 17.2371 26.3431 17.3393C26.0972 17.4346 25.6875 17.6458 25.4279 17.8161C25.1684 17.9864 24.7791 18.1907 24.5674 18.2793C24.144 18.4496 23.5157 18.7969 23.3244 18.9672C23.2561 19.0285 22.86 19.267 22.4366 19.4985C22.0131 19.737 21.3916 20.1184 21.0502 20.3432C19.4042 21.4671 18.052 22.4071 17.8266 22.591C17.6832 22.7068 16.9251 23.3131 16.1329 23.9398C14.6099 25.1522 12.6907 26.9914 11.5912 28.2924C11.277 28.6602 10.8809 29.1234 10.7102 29.3073C10.355 29.6956 9.55596 30.731 9.09837 31.3849C8.33346 32.4952 7.62318 33.5783 7.56854 33.7213C7.5344 33.8099 7.36366 34.0959 7.19292 34.3616C6.87875 34.852 6.19579 36.2076 5.75187 37.2429C5.61528 37.5631 5.38307 38.0672 5.23965 38.3669C5.09623 38.6666 4.85719 39.2796 4.70694 39.7292C4.54986 40.1788 4.3518 40.7578 4.26302 41.0234C3.84641 42.195 3.40932 44.0478 3.08833 45.9619C3.02686 46.3569 2.93125 46.861 2.87661 47.0858C2.73319 47.7125 2.50781 50.9344 2.50781 52.433C2.50781 54.0405 2.7127 57.1126 2.88344 58.0253C2.93808 58.3387 3.09516 59.2514 3.22492 60.0552C3.36151 60.859 3.59372 61.9897 3.7508 62.5755C3.90105 63.1613 4.06496 63.8221 4.1196 64.0468C4.25619 64.6871 4.67279 65.8111 4.79573 65.886C4.87768 65.9405 4.95281 65.8928 5.1577 65.6476C5.29429 65.4841 5.84749 64.8574 6.38702 64.2716L7.37049 63.1954L7.22706 62.7662C6.89241 61.7309 6.44166 59.2923 6.13433 56.8946C5.90212 55.0895 5.88846 54.8238 5.89529 52.2286C5.89529 49.8786 5.91578 49.3813 6.04554 48.2778C6.13433 47.583 6.2436 46.8474 6.29824 46.643C6.35288 46.4387 6.44166 45.9755 6.50313 45.6213C6.68753 44.5314 6.98803 43.3121 7.27487 42.4879C7.41829 42.0588 7.60952 41.507 7.68465 41.2618C8.00564 40.2741 8.18321 39.8246 8.60664 38.905C9.21448 37.5971 9.56962 36.8955 9.92475 36.3097C10.0887 36.0373 10.2253 35.7852 10.2253 35.7512C10.2253 35.7103 10.396 35.4378 10.6009 35.1381C10.8058 34.8384 10.9765 34.566 10.9765 34.5319C10.9765 34.4706 11.2565 34.0687 12.0897 32.9584C12.3219 32.6451 12.6293 32.2159 12.7795 32.0048C12.9229 31.7936 13.3054 31.3304 13.6332 30.9762C13.9542 30.622 14.364 30.1588 14.5416 29.9545C14.9855 29.4231 16.9661 27.4818 17.7173 26.8483C18.8237 25.9015 18.9808 25.7721 19.5408 25.343C20.8111 24.3689 21.938 23.5992 23.1673 22.8635C23.4337 22.7068 23.741 22.4957 23.8503 22.3935C23.9664 22.2845 24.3762 22.0393 24.7723 21.8486C25.1684 21.651 25.626 21.3922 25.7967 21.2764C25.9675 21.1606 26.2748 20.9767 26.4797 20.8677C27.3607 20.4113 29.3481 19.4304 29.7579 19.2601C32.961 17.8978 33.76 17.5913 35.3035 17.1553C35.6518 17.0532 36.1094 16.7398 36.1094 16.5968C36.1094 16.5695 36.5124 15.7317 37.0041 14.7372C37.489 13.7427 37.8715 12.898 37.851 12.8572C37.7963 12.7686 37.7622 12.7754 37.4753 12.898Z" fill="#0075FF"/>
<path d="M63.7109 12.8592C63.7109 12.9001 64.1139 13.7448 64.5988 14.7325C65.0905 15.727 65.4866 16.5648 65.4866 16.592C65.4866 16.6261 65.5754 16.7283 65.6779 16.8304C65.8213 16.9667 66.1491 17.1029 66.8594 17.3209C67.4058 17.4844 67.9999 17.6887 68.1843 17.7636C68.3756 17.8454 68.9561 18.077 69.4819 18.2745C70.0078 18.4721 70.7864 18.7922 71.203 18.9829C71.6264 19.1737 71.9952 19.3303 72.0157 19.3303C72.1523 19.3303 75.5535 21.0877 76.5164 21.6531C76.8306 21.837 77.1038 21.9869 77.1243 21.9869C77.1516 21.9869 77.4384 22.1572 77.7663 22.3751C78.0941 22.5863 78.6678 22.9541 79.0434 23.1994C79.7605 23.6625 80.4981 24.1802 81.7752 25.1271C82.506 25.6652 84.1314 27.0343 85.0466 27.8858C86.3579 29.1051 87.9014 30.7944 89.0283 32.2384C89.6293 33.0081 91.2069 35.3718 91.685 36.2233C92.7504 38.1237 93.6656 40.2421 94.2461 42.1494C94.3963 42.6535 94.5534 43.1439 94.5807 43.2393C94.7856 43.8114 95.2978 46.3794 95.4686 47.6669C95.8237 50.3506 95.8374 53.9813 95.5027 56.7264C95.3934 57.6323 95.2295 58.7426 95.1271 59.2467C95.0929 59.417 95.0178 59.8257 94.9564 60.1663C94.7924 61.0926 94.4373 62.6729 94.369 62.8024C94.1983 63.1157 94.2871 63.2588 95.3525 64.4167C95.9193 65.0434 96.4589 65.6496 96.534 65.7586C96.7525 66.0515 96.8755 65.9289 97.1145 65.2069C97.2989 64.6347 97.374 64.3895 97.7292 63.0953C97.8453 62.6661 98.1799 61.1199 98.4326 59.7916C98.5624 59.1241 98.8014 57.3122 98.9653 55.7727C99.02 55.3027 99.0473 54.0017 99.0473 52.5031C99.0473 50.0169 99.0405 49.9692 98.74 47.4625C98.5624 45.9571 98.098 43.6616 97.6814 42.2175C97.176 40.4533 96.0559 37.5379 95.4413 36.3595C95.3525 36.1892 95.1066 35.7328 94.9017 35.3377C94.0753 33.7438 93.0099 32.0886 91.8352 30.5355C91.2615 29.793 89.8751 28.1446 89.2127 27.4362C88.0311 26.1624 85.7227 24.0849 84.2749 22.9814C83.9266 22.7157 83.4758 22.3751 83.2777 22.2253C82.5743 21.6872 79.8971 19.9366 78.8317 19.3235C76.776 18.1247 75.5466 17.4912 72.9309 16.2787C72.1387 15.9041 69.8371 14.9504 69.3795 14.8006C69.1746 14.7325 68.6965 14.5417 68.3209 14.3714C67.4877 14.0036 67.0028 13.8265 65.2681 13.2407C63.9022 12.7843 63.7109 12.7366 63.7109 12.8592Z" fill="#0075FF"/>
<path d="M268.801 19.5317V23.4688L281.074 35.5187L293.34 47.5685L294.186 47.5889L295.026 47.6094V31.6633V15.724L291.598 15.7376L288.163 15.758L288.129 24.3135L288.094 32.8621L279.318 24.2317L270.542 15.5946H269.675L268.801 15.5877V19.5317Z" fill="#0075FF"/>
<path d="M140.716 16.1794C140.538 16.5404 138.066 20.968 137.547 21.8535C137.451 22.0238 137.526 22.1668 140.204 26.8941C141.72 29.5711 144.971 35.3269 147.422 39.6796L151.882 47.6016H156.185C159.6 47.6016 160.481 47.5811 160.453 47.513C160.44 47.4721 156.479 40.4289 151.65 31.8666C146.828 23.3044 142.826 16.1725 142.758 16.0091L142.628 15.723H141.788H140.941L140.716 16.1794Z" fill="#0075FF"/>
<path d="M368.031 19.0948V22.4665H377.668H387.304L387.147 22.7186C386.075 24.5236 384.094 26.0767 382.066 26.717C380.721 27.1461 381.137 27.1189 374.301 27.1461L368.031 27.1734V37.3841V47.6016H371.48H374.929V40.7627V33.9169L377.989 33.8897C380.468 33.8692 381.165 33.842 381.69 33.7466C382.046 33.6853 382.387 33.6172 382.449 33.5968C382.537 33.5763 383.569 35.1907 386.915 40.5855L391.272 47.6016H395.295C399.106 47.6016 399.311 47.5948 399.249 47.479C399.215 47.4176 396.866 43.6304 394.032 39.0597L388.875 30.7563L389.394 30.3476C392.147 28.1679 394.202 24.8779 394.967 21.4448C395.063 21.0156 395.179 20.3822 395.227 20.0484C395.322 19.3808 395.343 16.5881 395.254 16.0431L395.206 15.723H381.615H368.031V19.0948Z" fill="#0075FF"/>
<path d="M164.508 19.1969V22.6028H171.597C179.294 22.6028 179.198 22.5959 180.448 22.991C183.733 24.0128 186.137 26.6421 186.847 29.9798C187.059 30.9607 187.059 32.5682 186.847 33.5491C186.267 36.2942 184.491 38.6238 182.012 39.8908C181.636 40.0815 181.049 40.3335 180.714 40.4493C179.485 40.858 179.471 40.858 175.258 40.858H171.406V34.0804V27.3028H167.957H164.508V37.4522V47.6016L172.348 47.5879L180.182 47.5675L181.035 47.3768C185.345 46.4095 188.917 43.9914 191.307 40.4153C192.557 38.5489 193.472 36.0967 193.773 33.8216C193.909 32.7726 193.909 30.7563 193.773 29.7073C193.411 26.9282 192.229 24.1558 190.447 21.9216C188.466 19.4285 185.447 17.3918 182.436 16.5199C180.216 15.8728 180.257 15.8728 171.802 15.832L164.508 15.7911V19.1969Z" fill="#0075FF"/>
<path d="M193.961 15.8392C194.473 16.7929 205.448 36.2266 205.476 36.2266C205.517 36.2266 209.737 28.8291 209.772 28.7065C209.778 28.6656 208.167 25.7502 206.179 22.2286L202.573 15.8256L198.25 15.8052C195.873 15.7984 193.947 15.812 193.961 15.8392Z" fill="#0075FF"/>
<path d="M217.592 24.5645C214.881 29.3872 211.657 35.0885 210.434 37.2342L208.215 41.1305L209.943 44.366L211.671 47.6016H212.599H213.535L219.941 36.0354C227.993 21.4925 230.841 16.3701 231.033 16.0431L231.183 15.7911H226.853L222.53 15.7979L217.592 24.5645Z" fill="#0075FF"/>
<path d="M234.996 19.1595V22.5312H249.441H263.885V19.1595V15.7877H249.441H234.996V19.1595Z" fill="#0075FF"/>
<path d="M299.941 19.1595V22.5312H314.523H329.104V19.1595V15.7877H314.523H299.941V19.1595Z" fill="#0075FF"/>
<path d="M333.974 26.432C333.994 37.0377 333.994 37.0786 334.138 37.7121C334.363 38.6861 334.54 39.1834 335.019 40.1438C335.531 41.186 336.077 41.9421 336.999 42.8617C339.492 45.348 342.565 46.8806 346.178 47.4459C347.271 47.6162 349.784 47.6094 350.877 47.4391C353.882 46.9691 356.532 45.8111 358.847 43.9448C361.449 41.8468 362.781 39.4831 363.047 36.486C363.088 36.016 363.116 31.8609 363.116 25.7508V15.7921H359.667H356.218V24.729C356.218 34.2926 356.218 34.3403 355.876 35.4234C355.118 37.8619 353.09 39.8441 350.631 40.5594C346.731 41.6833 342.511 39.4695 341.227 35.6209C340.837 34.4493 340.851 34.8171 340.851 24.913V15.7921H337.402H333.953L333.974 26.432Z" fill="#0075FF"/>
<path d="M402.109 19.1595V22.5312H416.554H430.999V19.1595V15.7877H416.554H402.109V19.1595Z" fill="#0075FF"/>
<path d="M35.6052 24.5278C35.5164 24.6504 35.2842 25.0046 35.0861 25.3247C34.8881 25.6449 34.4578 26.3192 34.13 26.8233C33.8022 27.3274 33.2148 28.2469 32.8324 28.8668C32.4431 29.4867 32.0743 30.0657 32.0128 30.161C31.9445 30.2564 31.6713 30.6855 31.3981 31.1146C31.125 31.5438 30.7357 32.1568 30.5308 32.477C30.3191 32.7971 29.8683 33.4987 29.5268 34.0437C29.1853 34.5886 28.8234 35.154 28.7278 35.3038C28.5707 35.5422 27.8331 36.707 26.2486 39.2069C25.6818 40.0992 24.7598 41.5365 24.3841 42.1019C24.2407 42.3198 24.0358 42.6468 23.9197 42.8307C23.3187 43.798 22.9704 44.3497 22.6426 44.8538C22.1918 45.5486 22.1509 45.6167 21.0923 47.2923C20.2113 48.6751 19.8698 49.2132 19.139 50.3508C18.9136 50.6982 18.5585 51.2567 18.3536 51.5837C17.9438 52.2308 17.1926 53.416 16.9535 53.7975C16.8647 53.9269 16.5096 54.4787 16.1545 55.0236C15.8062 55.5685 15.3144 56.3246 15.0754 56.7129C14.8295 57.0943 14.3378 57.8709 13.9827 58.4294C13.6275 58.988 13.286 59.5329 13.2246 59.6351C13.1631 59.7373 12.8421 60.2413 12.5143 60.7454C12.1865 61.2494 11.8245 61.8148 11.7152 62.0055C11.606 62.1895 11.4216 62.4892 11.2986 62.6663C11.1757 62.8434 10.9093 63.2521 10.7045 63.579C10.4996 63.906 10.1444 64.4577 9.91905 64.8051C9.69367 65.1593 9.35902 65.6838 9.17462 65.9699C8.99022 66.2628 8.71021 66.6988 8.55313 66.944C8.39605 67.1892 8.08871 67.6797 7.86334 68.0339C7.64479 68.3881 7.27599 68.9739 7.04379 69.3281C6.81158 69.6823 6.42229 70.2953 6.17643 70.6904C5.77348 71.3375 5.17931 72.2639 4.59196 73.1767C4.31878 73.599 2.78212 76.0103 2.11965 77.0593C0.835681 79.0824 0.350779 79.8044 0.16638 79.9679C0.00929938 80.0973 -0.0316782 80.1722 0.0229586 80.2267C0.0980842 80.3017 11.5172 80.3221 16.7828 80.2608C18.2307 80.2404 30.722 80.1927 44.5451 80.1518C58.3682 80.1109 69.8897 80.0769 70.1561 80.0701C70.7434 80.0564 70.7913 79.9543 70.4498 79.4843C70.3268 79.314 69.7258 78.374 69.118 77.3999C67.5199 74.8387 67.4857 74.7774 66.7959 73.6944C65.9764 72.3933 65.4915 71.6168 64.9998 70.8266C64.467 69.9616 64.1665 69.4779 62.4591 66.7737C62.1791 66.3241 61.8581 65.8133 61.7557 65.6293C61.3937 65.0027 61.9742 65.064 55.732 65.0095C52.6997 64.9822 49.3258 64.9482 48.2331 64.9346C47.1472 64.9209 43.507 64.8869 40.1605 64.8596C33.4948 64.8119 33.7407 64.8256 34.048 64.4373C34.13 64.3351 34.2461 64.158 34.3075 64.049C34.369 63.9332 34.5466 63.6472 34.7105 63.4019C35.291 62.5096 35.7691 61.7535 38.2004 57.864C38.7741 56.9513 39.2863 56.1475 40.099 54.8874C40.5225 54.2334 41.0825 53.3411 41.3489 52.912C41.9294 51.9583 42.2435 51.4543 43.4182 49.6083C43.9168 48.8182 44.4632 47.9463 44.6339 47.667C44.7978 47.3877 45.0983 46.9109 45.2964 46.6112C45.4876 46.3115 45.8154 45.8074 46.0135 45.4873C46.9082 44.0704 47.1608 43.6754 47.434 43.2667C47.5911 43.0282 47.7209 42.7898 47.7209 42.7422C47.7209 42.6945 47.6184 42.5174 47.5023 42.3539C47.3794 42.1904 47.1677 41.8839 47.0379 41.6659C46.8194 41.3117 46.5462 40.8758 45.6037 39.4317C45.433 39.1728 45.1256 38.6892 44.9139 38.3554C44.7022 38.0285 44.2856 37.3814 43.9919 36.925C43.3841 35.985 42.0796 33.9619 41.5196 33.09C41.0347 32.3271 40.5156 31.5233 39.9146 30.6038C39.341 29.7319 38.7741 28.8396 38.1663 27.8791C37.9272 27.5045 37.5653 26.9391 37.3604 26.619C37.1555 26.2988 36.7594 25.6858 36.4794 25.2566C36.1993 24.8275 35.974 24.4528 35.974 24.4324C35.974 24.4052 35.9262 24.3711 35.8715 24.3439C35.8101 24.3234 35.7076 24.3915 35.6052 24.5278Z" fill="#0075FF"/>
<path d="M129.131 36.7846C126.071 42.2203 123.449 46.8795 123.305 47.1384L123.039 47.6016L127.369 47.5879L131.692 47.5675L135.36 41.0624C137.381 37.4862 139.027 34.5436 139.034 34.5232C139.034 34.4755 134.806 27.0167 134.745 26.9486C134.718 26.9282 132.191 31.3557 129.131 36.7846Z" fill="#0075FF"/>
<path d="M234.996 37.4181V47.6016H249.441H263.885V44.2298V40.858H252.89H241.894V37.4522V34.0464H251.455H261.017V30.6405V27.2347H248.006H234.996V37.4181Z" fill="#0075FF"/>
<path d="M402.109 37.4181V47.6016H416.554H430.999V44.2298V40.858H420.003H409.007V37.4522V34.0464H418.569H428.13V30.6405V27.2347H415.12H402.109V37.4181Z" fill="#0075FF"/>
<path d="M310.859 37.4522V47.6016H314.274H317.689V37.4522V27.3028H314.274H310.859V37.4522Z" fill="#0075FF"/>
<path d="M268.801 38.8328V47.5312H272.25H275.699V42.2182V36.8982L273.049 34.2962C271.594 32.8657 270.044 31.3399 269.6 30.9176L268.801 30.1343V38.8328Z" fill="#0075FF"/>
<path d="M21.2619 82.9986C21.0775 83.0122 20.2921 83.0804 19.5203 83.1553C18.7486 83.2234 18.0725 83.2779 18.0178 83.2779C17.5739 83.2506 17.5671 83.4209 17.9973 83.7206C18.1749 83.8364 18.5027 84.0817 18.7281 84.252C18.9603 84.4222 19.5886 84.8582 20.135 85.2192C20.6814 85.5802 21.2619 85.9753 21.4326 86.0911C22.8805 87.072 26.6573 89.095 28.9452 90.1168C33.0566 91.9628 36.847 93.2025 41.2043 94.1289C42.3107 94.3673 45.1996 94.7964 46.3948 94.9054C46.6612 94.9258 47.1051 94.9803 47.3851 95.0144C47.6651 95.0484 48.2661 95.1029 48.7169 95.1438C49.1676 95.1779 49.5433 95.2392 49.5569 95.28C49.5911 95.3754 53.0332 95.3754 53.0673 95.28C53.081 95.246 53.5522 95.1711 54.1123 95.1097C57.2402 94.8032 57.2334 94.8032 59.2345 94.4899C62.7176 93.945 67.3958 92.5486 70.517 91.1317C70.9404 90.941 71.3024 90.7843 71.316 90.7843C71.3297 90.7843 71.8965 90.5187 72.5658 90.1917C75.7211 88.6591 79.2247 86.5066 82.1136 84.3269C82.38 84.1293 82.701 83.8978 82.8307 83.816C83.3566 83.4754 83.2063 83.4414 80.3857 83.2234L79.334 83.1417L78.9447 83.4073C78.733 83.5572 78.3915 83.7751 78.1866 83.8841C77.9817 83.9999 77.5378 84.252 77.1963 84.4495C74.7923 85.8527 71.0838 87.5216 68.0105 88.5774C65.627 89.3948 64.1381 89.8171 61.4882 90.4233C59.1525 90.9546 56.3592 91.3633 53.361 91.6017C51.9609 91.7175 47.952 91.6971 46.4631 91.5677C44.6533 91.411 41.5526 90.9819 40.3506 90.7162C39.572 90.5459 37.2295 89.9738 36.97 89.8988C34.4567 89.1223 32.2029 88.3253 30.9599 87.7736C30.5843 87.6033 30.0789 87.3785 29.833 87.2763C28.5901 86.7382 25.4279 85.0694 24.0825 84.2383C23.7547 84.034 23.3244 83.7683 23.1264 83.6457C22.9283 83.5231 22.6142 83.3188 22.4298 83.1893C22.0883 82.9441 22.0814 82.9441 21.2619 82.9986Z" fill="#0075FF"/>
<path d="M170.77 83V62.6364H184.491V66.1861H175.075V71.0384H183.786V74.5881H175.075V79.4503H184.531V83H170.77ZM200.15 71.1378V74.4986H190.864V71.1378H200.15ZM224.607 69.7656H220.252C220.172 69.2022 220.01 68.7017 219.764 68.2642C219.519 67.8201 219.204 67.4422 218.82 67.1307C218.435 66.8191 217.991 66.5805 217.487 66.4148C216.99 66.2491 216.45 66.1662 215.867 66.1662C214.813 66.1662 213.895 66.428 213.112 66.9517C212.33 67.4687 211.724 68.2244 211.293 69.2188C210.862 70.2064 210.647 71.4062 210.647 72.8182C210.647 74.2699 210.862 75.4896 211.293 76.4773C211.73 77.465 212.34 78.2107 213.122 78.7145C213.905 79.2183 214.809 79.4702 215.837 79.4702C216.414 79.4702 216.947 79.3939 217.438 79.2415C217.935 79.089 218.376 78.867 218.76 78.5753C219.145 78.277 219.463 77.9157 219.715 77.4915C219.973 77.0672 220.152 76.5833 220.252 76.0398L224.607 76.0597C224.494 76.9943 224.212 77.8958 223.762 78.7642C223.317 79.6259 222.718 80.3982 221.962 81.081C221.213 81.7571 220.318 82.294 219.277 82.6918C218.243 83.0829 217.073 83.2784 215.767 83.2784C213.951 83.2784 212.327 82.8674 210.895 82.0455C209.47 81.2235 208.343 80.0336 207.514 78.4759C206.692 76.9181 206.281 75.0322 206.281 72.8182C206.281 70.5975 206.699 68.7083 207.534 67.1506C208.37 65.5928 209.503 64.4062 210.935 63.5909C212.367 62.7689 213.977 62.358 215.767 62.358C216.947 62.358 218.041 62.5237 219.049 62.8551C220.063 63.1866 220.961 63.6705 221.743 64.3068C222.525 64.9366 223.162 65.7088 223.652 66.6236C224.149 67.5384 224.468 68.5857 224.607 69.7656ZM249.207 72.8182C249.207 75.0388 248.786 76.928 247.944 78.4858C247.109 80.0436 245.969 81.2334 244.524 82.0554C243.085 82.8707 241.468 83.2784 239.672 83.2784C237.862 83.2784 236.238 82.8674 234.8 82.0455C233.361 81.2235 232.224 80.0336 231.389 78.4759C230.554 76.9181 230.136 75.0322 230.136 72.8182C230.136 70.5975 230.554 68.7083 231.389 67.1506C232.224 65.5928 233.361 64.4062 234.8 63.5909C236.238 62.7689 237.862 62.358 239.672 62.358C241.468 62.358 243.085 62.7689 244.524 63.5909C245.969 64.4062 247.109 65.5928 247.944 67.1506C248.786 68.7083 249.207 70.5975 249.207 72.8182ZM244.842 72.8182C244.842 71.3797 244.627 70.1667 244.196 69.179C243.772 68.1913 243.172 67.4422 242.396 66.9318C241.621 66.4214 240.712 66.1662 239.672 66.1662C238.631 66.1662 237.723 66.4214 236.947 66.9318C236.172 67.4422 235.568 68.1913 235.138 69.179C234.713 70.1667 234.501 71.3797 234.501 72.8182C234.501 74.2566 234.713 75.4697 235.138 76.4574C235.568 77.4451 236.172 78.1941 236.947 78.7045C237.723 79.215 238.631 79.4702 239.672 79.4702C240.712 79.4702 241.621 79.215 242.396 78.7045C243.172 78.1941 243.772 77.4451 244.196 76.4574C244.627 75.4697 244.842 74.2566 244.842 72.8182ZM255.196 62.6364H260.506L266.114 76.3182H266.353L271.961 62.6364H277.27V83H273.094V69.7457H272.925L267.655 82.9006H264.812L259.542 69.696H259.373V83H255.196V62.6364ZM283.618 62.6364H288.927L294.535 76.3182H294.774L300.382 62.6364H305.691V83H301.515V69.7457H301.346L296.076 82.9006H293.233L287.963 69.696H287.794V83H283.618V62.6364ZM312.039 83V62.6364H325.76V66.1861H316.344V71.0384H325.054V74.5881H316.344V79.4503H325.8V83H312.039ZM331.983 83V62.6364H340.017C341.555 62.6364 342.868 62.9115 343.955 63.4616C345.049 64.0052 345.88 64.7775 346.451 65.7784C347.027 66.7727 347.316 67.9427 347.316 69.2884C347.316 70.6406 347.024 71.804 346.441 72.7784C345.857 73.7462 345.012 74.4886 343.905 75.0057C342.805 75.5227 341.472 75.7812 339.908 75.7812H334.529V72.321H339.212C340.034 72.321 340.717 72.2083 341.26 71.983C341.804 71.7576 342.208 71.4195 342.473 70.9688C342.745 70.518 342.881 69.9579 342.881 69.2884C342.881 68.6122 342.745 68.0421 342.473 67.5781C342.208 67.1141 341.8 66.7628 341.25 66.5241C340.707 66.2789 340.021 66.1562 339.192 66.1562H336.289V83H331.983ZM342.98 73.733L348.041 83H343.289L338.337 73.733H342.98ZM371.125 69.7656H366.77C366.691 69.2022 366.528 68.7017 366.283 68.2642C366.038 67.8201 365.723 67.4422 365.339 67.1307C364.954 66.8191 364.51 66.5805 364.006 66.4148C363.509 66.2491 362.969 66.1662 362.385 66.1662C361.331 66.1662 360.413 66.428 359.631 66.9517C358.849 67.4687 358.242 68.2244 357.812 69.2188C357.381 70.2064 357.165 71.4062 357.165 72.8182C357.165 74.2699 357.381 75.4896 357.812 76.4773C358.249 77.465 358.859 78.2107 359.641 78.7145C360.423 79.2183 361.328 79.4702 362.356 79.4702C362.932 79.4702 363.466 79.3939 363.956 79.2415C364.454 79.089 364.894 78.867 365.279 78.5753C365.663 78.277 365.982 77.9157 366.233 77.4915C366.492 77.0672 366.671 76.5833 366.77 76.0398L371.125 76.0597C371.013 76.9943 370.731 77.8958 370.28 78.7642C369.836 79.6259 369.236 80.3982 368.481 81.081C367.732 81.7571 366.837 82.294 365.796 82.6918C364.762 83.0829 363.592 83.2784 362.286 83.2784C360.47 83.2784 358.846 82.8674 357.414 82.0455C355.989 81.2235 354.862 80.0336 354.033 78.4759C353.211 76.9181 352.8 75.0322 352.8 72.8182C352.8 70.5975 353.218 68.7083 354.053 67.1506C354.888 65.5928 356.022 64.4062 357.454 63.5909C358.885 62.7689 360.496 62.358 362.286 62.358C363.466 62.358 364.56 62.5237 365.567 62.8551C366.581 63.1866 367.48 63.6705 368.262 64.3068C369.044 64.9366 369.68 65.7088 370.171 66.6236C370.668 67.5384 370.986 68.5857 371.125 69.7656ZM377.013 83V62.6364H390.734V66.1861H381.318V71.0384H390.028V74.5881H381.318V79.4503H390.774V83H377.013Z" fill="#0075FF"/>
</svg>
