<svg width="2873" height="622" viewBox="0 0 2873 622" fill="none" xmlns="http://www.w3.org/2000/svg">
<path d="M324.086 1.1017C323.779 1.80385 322.945 3.29595 322.155 4.52462C321.41 5.70964 319.434 8.86929 317.811 11.5462C316.188 14.1792 313.16 18.9188 311.14 22.0784C308.07 26.818 304.866 32.0841 299.644 40.8611C299.25 41.5194 297.581 44.2402 295.871 46.8733C292.71 51.8322 290.737 54.948 283.365 66.8407C275.29 79.8743 273.842 82.2002 271.516 85.9304C270.244 87.993 267.83 91.811 266.205 94.4879C264.582 97.1211 262.432 100.632 261.378 102.299C260.327 103.924 258.264 107.126 256.816 109.452C255.368 111.734 253.612 114.544 252.911 115.641C251.726 117.483 251.682 117.746 252.252 118.668C253.656 121.038 260.414 131.614 262.696 135.124C264.057 137.187 267.524 142.673 270.419 147.325C275.684 155.794 280.73 163.781 284.022 168.961C285.557 171.33 289.771 178.043 292.053 181.731C292.754 182.87 295.695 187.522 300.917 195.862C302.145 197.792 304.953 202.224 307.192 205.735C309.43 209.246 311.931 213.284 312.765 214.688C313.598 216.048 315.968 219.865 318.03 223.113C322.375 229.959 330.801 243.389 335.672 251.068C341.99 261.118 343.175 263.004 345.017 265.857C346.027 267.436 347.168 269.28 347.562 270.025C347.915 270.728 348.835 272.088 349.582 273.054C350.328 273.976 350.942 274.985 350.942 275.248C350.942 275.511 350.328 276.74 349.582 277.925C347.958 280.603 344.535 286.44 340.849 292.846C339.358 295.478 336.857 299.736 335.363 302.281C333.828 304.826 332.073 307.986 331.414 309.302C330.757 310.619 329.66 312.506 329.001 313.472C328.344 314.438 326.631 317.289 325.183 319.834C323.736 322.379 321.103 326.9 319.347 329.928C317.592 332.957 315.836 335.984 315.485 336.731C315.091 337.432 314.082 339.144 313.203 340.461C312.281 341.777 310.834 344.366 309.912 346.166C308.992 347.964 307.938 349.939 307.498 350.555C307.06 351.168 305.262 354.197 303.462 357.357C301.663 360.472 298.24 366.396 295.871 370.522C293.501 374.602 290.693 379.342 289.64 381.054C288.146 383.336 287.752 384.258 288.059 384.784C288.323 385.134 288.761 385.443 289.112 385.443C295.299 385.355 368.627 384.696 389.47 384.565L417.642 384.389L418.696 385.355C419.749 386.319 423.435 392.024 427.384 398.827C428.569 400.89 429.841 402.865 430.148 403.216C430.456 403.566 431.158 404.751 431.685 405.804C432.211 406.902 433.308 408.789 434.099 409.974C434.887 411.203 437.389 415.371 439.714 419.234C441.996 423.095 444.98 428.054 446.341 430.292C447.702 432.486 448.799 434.418 448.799 434.593C448.799 434.768 449.456 435.909 450.29 437.138C451.738 439.376 456.741 447.539 459.548 452.366C460.998 454.867 463.499 459.037 467.448 465.532C468.677 467.593 470.256 470.228 470.959 471.456C471.616 472.641 472.801 474.615 473.591 475.844C474.382 477.028 478.55 483.962 482.851 491.161C487.194 498.357 491.496 505.598 492.461 507.177C493.425 508.802 495.182 511.741 496.366 513.76C497.551 515.736 498.911 517.578 499.35 517.797C499.921 518.106 511.636 518.106 535.815 517.797C582.638 517.184 643.721 516.658 648.548 516.833C650.655 516.877 652.76 516.833 653.287 516.658C654.56 516.262 654.385 514.945 652.937 514.42C651.663 513.936 649.996 511.478 635.12 487.913C633.935 486.113 631.303 481.945 629.24 478.653C627.133 475.362 624.325 470.973 623.009 468.866C621.693 466.761 619.235 462.898 617.523 460.265C611.644 451.093 609.669 447.977 599.356 431.652C598.479 430.248 596.592 427.265 595.144 424.939C593.696 422.657 591.677 419.541 590.667 418.005C589.658 416.512 588.122 414.098 587.244 412.651C586.412 411.203 584.743 408.526 583.558 406.726C582.373 404.926 580.268 401.592 578.864 399.31C576.274 395.184 570.439 386.012 566.709 380.176C565.612 378.465 563.549 375.217 562.101 372.935C559.248 368.459 556.571 364.245 551.569 356.347C547.62 350.159 542.881 342.743 539.633 337.609C535.421 330.982 527.742 318.825 526.689 317.202C526.161 316.368 524.582 313.866 523.134 311.628C521.73 309.434 519.185 305.397 517.473 302.721C513.612 296.619 511.198 292.802 507.293 286.702C505.581 284.024 502.291 278.803 499.921 275.073C497.551 271.343 495.006 267.261 494.216 266.076C493.425 264.848 491.187 261.293 489.17 258.177C487.194 255.018 484.649 251.068 483.508 249.313C482.411 247.557 480.306 244.221 478.857 241.896C477.409 239.57 474.995 235.796 473.504 233.558C471.968 231.276 470.74 229.3 470.74 229.125C470.74 228.994 469.511 226.975 467.974 224.649C466.438 222.323 464.419 219.208 463.455 217.671C462.533 216.179 461.086 213.897 460.251 212.625C459.461 211.352 457.268 207.973 455.468 205.078C453.67 202.18 451.169 198.231 449.896 196.3C447.745 192.921 444.279 187.522 440.109 180.941C439.057 179.228 436.6 175.455 434.712 172.471C432.824 169.487 431.245 166.942 431.245 166.722C431.245 166.546 430.632 165.581 429.885 164.572C429.138 163.562 426.989 160.315 425.146 157.331C414.615 140.742 404.696 125.076 404.039 124.11C400.967 119.502 398.334 115.332 397.764 114.235C397.412 113.49 396.052 111.34 394.736 109.408C393.463 107.478 391.313 104.143 389.996 102.036C388.68 99.8857 386.223 95.98 384.512 93.3469C382.843 90.7138 379.772 85.8866 377.709 82.5953C375.647 79.3478 372.269 74.0377 370.162 70.7903C368.055 67.5428 366.038 64.2077 365.686 63.3299C365.335 62.4962 363.581 59.6436 361.824 57.0544C360.114 54.4653 357.26 50.2524 355.55 47.6193C353.883 45.0301 351.907 42.0021 351.161 40.9049C350.46 39.8079 348.968 37.438 347.871 35.6826C346.774 33.9273 345.37 31.733 344.754 30.7676C344.141 29.846 341.684 25.9842 339.27 22.1662C336.9 18.3483 334.178 14.0916 333.302 12.7311C332.38 11.3268 331.239 9.43981 330.712 8.47423C330.186 7.50882 329.22 6.01672 328.563 5.18294C327.904 4.34916 326.938 2.81324 326.412 1.75986C325.315 -0.390401 324.789 -0.522031 324.086 1.1017Z" fill="#2563EA"/>
<path d="M240.802 83.1298C239.968 83.4809 236.106 84.8413 232.245 86.1578C222.372 89.4491 216.316 91.6433 210.961 93.7938C208.416 94.803 204.774 96.2513 202.844 96.9972C196.745 99.3671 184.634 104.634 178.269 107.661C174.892 109.286 170.854 111.084 169.274 111.743C167.695 112.356 165.062 113.717 163.394 114.814C161.727 115.911 159.226 117.227 157.866 117.799C155.144 118.896 151.107 121.134 149.878 122.231C149.44 122.626 146.895 124.161 144.173 125.654C141.453 127.19 137.46 129.647 135.266 131.095C124.69 138.337 116.002 144.393 114.554 145.578C113.632 146.323 108.761 150.23 103.671 154.266C93.8855 162.078 81.555 173.927 74.4897 182.308C72.4705 184.678 69.9255 187.663 68.8283 188.848C66.5463 191.349 61.4125 198.02 58.4731 202.233C53.5584 209.386 48.9943 216.364 48.6438 217.284C48.4246 217.855 47.3274 219.699 46.2302 221.41C44.2111 224.57 39.8239 233.302 36.9705 239.973C36.0924 242.036 34.6008 245.284 33.6789 247.214C32.7587 249.145 31.2216 253.094 30.2575 255.991C29.2479 258.887 27.9755 262.617 27.4041 264.329C24.7277 271.876 21.9197 283.814 19.8568 296.145C19.4624 298.69 18.8472 301.938 18.4967 303.387C17.5747 307.424 16.127 328.181 16.127 337.835C16.127 348.192 17.4433 367.984 18.5405 373.864C18.891 375.884 19.9006 381.764 20.7349 386.942C21.613 392.121 23.1046 399.405 24.1142 403.179C25.0782 406.954 26.1316 411.21 26.4839 412.658C27.3603 416.784 30.0367 424.024 30.8272 424.508C31.3547 424.859 31.8367 424.552 33.1531 422.971C34.0312 421.917 37.5857 417.881 41.0526 414.107L47.3713 407.173L46.4493 404.408C44.2987 397.738 41.4032 382.027 39.4279 366.58C37.9363 354.951 37.8486 353.238 37.8925 336.519C37.8925 321.379 38.0239 318.175 38.8582 311.066C39.4279 306.589 40.1307 301.85 40.4813 300.534C40.8318 299.217 41.4032 296.232 41.7976 293.95C42.9824 286.929 44.9139 279.075 46.7561 273.764C47.678 271 48.9067 267.445 49.3887 265.864C51.4517 259.502 52.5927 256.605 55.313 250.681C59.2181 242.255 61.5001 237.735 63.7822 233.961C64.8356 232.205 65.7137 230.582 65.7137 230.363C65.7137 230.098 66.8109 228.344 68.1272 226.412C69.4435 224.482 70.5407 222.726 70.5407 222.507C70.5407 222.113 72.3391 219.522 77.6936 212.369C79.1852 210.352 81.1606 207.586 82.1246 206.226C83.0465 204.866 85.5039 201.881 87.6106 199.599C89.6736 197.317 92.3062 194.334 93.4473 193.017C96.299 189.594 109.024 177.087 113.851 173.005C120.96 166.905 121.97 166.071 125.568 163.307C133.73 157.032 140.971 152.072 148.869 147.332C150.581 146.323 152.555 144.963 153.258 144.305C154.003 143.602 156.637 142.023 159.182 140.795C161.727 139.522 164.666 137.854 165.764 137.109C166.861 136.362 168.836 135.177 170.152 134.474C175.812 131.535 188.582 125.215 191.215 124.117C211.796 115.341 216.93 113.366 226.847 110.558C229.085 109.899 232.026 107.88 232.026 106.96C232.026 106.783 234.615 101.386 237.773 94.9786C240.889 88.5715 243.347 83.1298 243.215 82.8665C242.863 82.296 242.644 82.3398 240.802 83.1298Z" fill="#2563EA"/>
<path d="M409.295 82.864C409.295 83.1273 411.884 88.569 415 94.9323C418.16 101.339 420.705 106.738 420.705 106.913C420.705 107.132 421.275 107.79 421.934 108.449C422.854 109.327 424.961 110.203 429.525 111.609C433.036 112.662 436.853 113.979 438.038 114.461C439.267 114.988 442.997 116.48 446.376 117.752C449.755 119.025 454.757 121.088 457.434 122.316C460.154 123.545 462.524 124.555 462.655 124.555C463.533 124.555 485.387 135.877 491.574 139.519C493.593 140.704 495.347 141.67 495.479 141.67C495.654 141.67 497.498 142.765 499.605 144.171C501.71 145.531 505.396 147.901 507.809 149.48C512.417 152.465 517.157 155.801 525.363 161.9C530.059 165.367 540.501 174.188 546.382 179.673C554.807 187.529 564.724 198.411 571.965 207.715C575.826 212.675 585.964 227.903 589.035 233.387C595.881 245.632 601.761 259.28 605.491 271.567C606.455 274.815 607.465 277.975 607.64 278.588C608.956 282.274 612.248 298.82 613.345 307.114C615.627 324.405 615.715 347.795 613.564 365.48C612.863 371.317 611.81 378.47 611.151 381.718C610.932 382.815 610.45 385.447 610.054 387.642C609.002 393.61 606.72 403.792 606.28 404.626C605.183 406.643 605.754 407.565 612.599 415.027C616.241 419.063 619.708 422.968 620.191 423.671C621.595 425.559 622.386 424.768 623.921 420.116C625.106 416.43 625.588 414.85 627.87 406.512C628.617 403.748 630.766 393.785 632.391 385.228C633.223 380.927 634.76 369.254 635.814 359.337C636.164 356.308 636.339 347.927 636.339 338.273C636.339 322.254 636.296 321.948 634.364 305.798C633.223 296.098 630.24 281.31 627.564 272.007C624.316 260.64 617.119 241.858 613.17 234.265C612.599 233.168 611.019 230.229 609.703 227.684C604.394 217.414 597.548 206.751 590.001 196.744C586.315 191.961 577.407 181.341 573.15 176.777C565.559 168.571 550.727 155.185 541.423 148.076C539.185 146.366 536.29 144.171 535.017 143.205C530.497 139.738 513.295 128.46 506.449 124.511C493.241 116.786 485.343 112.706 468.536 104.894C463.446 102.48 448.658 96.3366 445.717 95.371C444.401 94.9323 441.33 93.7034 438.916 92.6064C433.562 90.2365 430.447 89.0955 419.301 85.3215C410.524 82.3813 409.295 82.074 409.295 82.864Z" fill="#2563EA"/>
<path d="M228.771 158.034C228.201 158.824 226.708 161.106 225.436 163.169C224.163 165.232 221.399 169.576 219.292 172.823C217.187 176.071 213.414 181.996 210.956 185.99C208.453 189.983 206.085 193.713 205.689 194.328C205.251 194.941 203.495 197.707 201.74 200.471C199.984 203.235 197.483 207.186 196.167 209.249C194.807 211.31 191.911 215.83 189.717 219.341C187.522 222.852 185.196 226.494 184.583 227.46C183.573 228.995 178.834 236.5 168.654 252.606C165.012 258.355 159.087 267.615 156.674 271.257C155.752 272.661 154.436 274.768 153.689 275.953C149.828 282.184 147.589 285.738 145.484 288.986C142.587 293.462 142.324 293.901 135.522 304.697C129.862 313.605 127.668 317.072 122.972 324.402C121.524 326.638 119.242 330.238 117.926 332.343C115.293 336.513 110.466 344.15 108.931 346.607C108.36 347.44 106.078 350.994 103.796 354.505C101.559 358.016 98.3988 362.888 96.8634 365.389C95.2825 367.847 92.124 372.849 89.8419 376.447C87.5599 380.046 85.3655 383.557 84.9711 384.216C84.5767 384.875 82.5137 388.121 80.407 391.368C78.3002 394.616 75.976 398.258 75.2732 399.487C74.5703 400.672 73.3855 402.603 72.5967 403.745C71.8063 404.886 70.0956 407.518 68.7792 409.625C67.4629 411.732 65.1809 415.286 63.7314 417.524C62.2836 419.807 60.133 423.184 58.9499 425.028C57.765 426.916 55.965 429.724 54.9554 431.303C53.9458 432.884 51.9722 436.044 50.5244 438.324C49.1188 440.606 46.7491 444.382 45.2575 446.664C43.7659 448.946 41.2648 452.895 39.6855 455.44C37.0967 459.609 33.2776 465.577 29.5039 471.458C27.7494 474.178 17.8762 489.714 13.6188 496.471C5.36936 509.506 2.25386 514.158 1.06901 515.211C0.0597838 516.044 -0.203477 516.528 0.147428 516.878C0.630132 517.36 74.0007 517.493 107.834 517.097C117.136 516.966 197.395 516.659 286.212 516.396C375.028 516.132 449.057 515.913 450.77 515.869C454.543 515.781 454.85 515.124 452.656 512.095C451.867 510.998 448.004 504.942 444.099 498.666C433.831 482.165 433.612 481.771 429.179 474.793C423.914 466.412 420.798 461.408 417.638 456.318C414.216 450.744 412.285 447.628 401.314 430.207C399.516 427.31 397.453 424.018 396.794 422.834C394.468 418.797 398.2 419.191 358.092 418.841C338.607 418.666 316.93 418.445 309.909 418.357C302.931 418.269 279.543 418.05 258.04 417.875C215.212 417.568 216.791 417.656 218.766 415.155C219.292 414.496 220.039 413.355 220.433 412.652C220.829 411.907 221.97 410.063 223.022 408.484C226.754 402.735 229.824 397.864 245.447 372.805C249.133 366.925 252.424 361.747 257.646 353.629C260.366 349.415 263.964 343.666 265.677 340.902C269.407 334.757 271.424 331.511 278.971 319.617C282.175 314.527 285.686 308.909 286.783 307.111C287.837 305.311 289.766 302.238 291.039 300.309C292.268 298.377 294.374 295.129 295.647 293.068C301.396 283.94 303.019 281.395 304.775 278.761C305.785 277.225 306.617 275.69 306.617 275.381C306.617 275.075 305.96 273.933 305.213 272.88C304.423 271.827 303.063 269.853 302.23 268.447C300.824 266.165 299.07 263.357 293.014 254.054C291.917 252.387 289.942 249.271 288.582 247.12C287.221 245.013 284.545 240.845 282.657 237.904C278.752 231.849 270.371 218.815 266.772 213.198C263.658 208.283 260.322 203.104 256.461 197.179C252.775 191.562 249.133 185.813 245.228 179.626C243.69 177.212 241.366 173.57 240.048 171.507C238.732 169.444 236.187 165.495 234.389 162.731C232.589 159.965 231.141 157.552 231.141 157.42C231.141 157.245 230.834 157.026 230.483 156.849C230.087 156.718 229.43 157.158 228.771 158.034Z" fill="#2563EA"/>
<path d="M136.58 534.739C135.395 534.826 130.349 535.264 125.39 535.746C120.43 536.186 116.087 536.537 115.736 536.537C112.883 536.362 112.839 537.459 115.604 539.39C116.744 540.135 118.851 541.716 120.298 542.813C121.792 543.909 125.828 546.718 129.339 549.044C132.85 551.37 136.58 553.915 137.677 554.662C146.979 560.98 171.245 574.014 185.945 580.597C212.363 592.489 236.717 600.477 264.714 606.445C271.823 607.982 290.384 610.746 298.065 611.449C299.775 611.58 302.627 611.931 304.427 612.15C306.225 612.369 310.087 612.721 312.984 612.984C315.88 613.203 318.293 613.598 318.381 613.862C318.6 614.476 340.718 614.476 340.937 613.862C341.024 613.641 344.051 613.159 347.65 612.765C367.748 610.79 367.704 610.79 380.561 608.771C402.942 605.26 433.001 596.263 453.054 587.137C455.774 585.908 458.1 584.898 458.188 584.898C458.276 584.898 461.918 583.186 466.219 581.079C486.493 571.206 509.003 557.338 527.565 543.295C529.277 542.023 531.338 540.531 532.173 540.004C535.552 537.809 534.586 537.59 516.463 536.186L509.706 535.659L507.205 537.371C505.843 538.337 503.65 539.741 502.334 540.442C501.016 541.189 498.164 542.813 495.97 544.086C480.525 553.125 456.696 563.878 436.95 570.678C421.635 575.945 412.068 578.666 395.042 582.572C380.035 585.995 362.087 588.628 342.823 590.164C333.828 590.91 308.069 590.779 298.503 589.944C286.873 588.935 266.952 586.171 259.229 584.458C254.227 583.361 239.174 579.675 237.508 579.193C221.358 574.189 206.878 569.055 198.891 565.501C196.478 564.404 193.23 562.956 191.651 562.297C183.663 558.83 163.347 548.079 154.703 542.724C152.596 541.408 149.832 539.697 148.559 538.907C147.287 538.116 145.268 536.8 144.083 535.967C141.889 534.386 141.845 534.386 136.58 534.739Z" fill="#2563EA"/>
<path d="M1720 122.168V147.534L1798.86 225.164L1877.67 302.796L1883.11 302.928L1888.51 303.059V200.326V97.6366L1866.48 97.7242L1844.4 97.856L1844.18 152.974L1843.96 208.051L1787.59 152.449L1731.19 96.8028H1725.61L1720 96.7588V122.168Z" fill="#2563EA"/>
<path d="M897.089 100.57C895.948 102.896 880.063 131.422 876.727 137.125C876.112 138.223 876.596 139.144 893.797 169.6C903.539 186.847 924.426 223.93 940.18 251.972L968.835 303.009H996.48C1018.42 303.009 1024.08 302.878 1023.91 302.44C1023.82 302.175 998.367 256.799 967.342 201.636C936.362 146.473 910.648 100.526 910.208 99.4731L909.375 97.6299H903.977H898.536L897.089 100.57Z" fill="#2563EA"/>
<path d="M2357.6 119.353V141.076H2419.52H2481.44L2480.43 142.699C2473.54 154.328 2460.81 164.335 2447.78 168.459C2439.14 171.225 2441.82 171.049 2397.89 171.225L2357.6 171.4V237.182V303.009H2379.76H2401.92V258.949V214.845L2421.59 214.67C2437.52 214.538 2441.98 214.363 2445.37 213.748C2447.65 213.353 2449.84 212.915 2450.24 212.782C2450.82 212.651 2457.44 223.051 2478.93 257.808L2506.94 303.009H2532.78C2557.27 303.009 2558.58 302.966 2558.19 302.219C2557.98 301.825 2542.87 277.425 2524.65 247.979L2491.54 194.484L2494.87 191.849C2512.55 177.806 2525.77 156.61 2530.67 134.493C2531.3 131.729 2532.04 127.647 2532.34 125.496C2532.96 121.196 2533.08 103.203 2532.51 99.6925L2532.21 97.6299H2444.88H2357.6V119.353Z" fill="#2563EA"/>
<path d="M1049.94 120.006V141.948H1095.49C1144.94 141.948 1144.33 141.904 1152.36 144.449C1173.46 151.031 1188.91 167.971 1193.47 189.474C1194.83 195.794 1194.83 206.151 1193.47 212.47C1189.74 230.155 1178.33 245.163 1162.41 253.326C1159.99 254.555 1156.22 256.179 1154.07 256.924C1146.17 259.559 1146.08 259.559 1119.01 259.559H1094.26V215.893V172.229H1072.1H1049.94V237.616V303.004L1100.31 302.916L1150.65 302.785L1156.13 301.556C1183.82 295.323 1206.77 279.745 1222.13 256.705C1230.16 244.681 1236.04 228.882 1237.97 214.226C1238.85 207.467 1238.85 194.478 1237.97 187.719C1235.65 169.815 1228.05 151.953 1216.6 137.559C1203.87 121.497 1184.48 108.376 1165.13 102.759C1150.87 98.5897 1151.13 98.5897 1096.8 98.3264L1049.94 98.063V120.006Z" fill="#2563EA"/>
<path d="M1239.2 98.3683C1242.49 104.512 1313.01 229.715 1313.18 229.715C1313.45 229.715 1340.57 182.057 1340.79 181.266C1340.83 181.003 1330.47 162.221 1317.7 139.532L1294.54 98.2806L1266.76 98.1488C1251.49 98.105 1239.11 98.1928 1239.2 98.3683Z" fill="#2563EA"/>
<path d="M1390.98 154.586C1373.56 185.656 1352.85 222.388 1344.99 236.212L1330.73 261.313L1341.83 282.158L1352.94 303.004H1358.9H1364.92L1406.08 228.488C1457.81 134.794 1476.11 101.793 1477.34 99.6867L1478.31 98.063H1450.49L1422.71 98.107L1390.98 154.586Z" fill="#2563EA"/>
<path d="M1502.79 119.786V141.509H1595.6H1688.4V119.786V98.063H1595.6H1502.79V119.786Z" fill="#2563EA"/>
<path d="M1920.11 119.786V141.509H2013.78H2107.47V119.786V98.063H2013.78H1920.11V119.786Z" fill="#2563EA"/>
<path d="M2138.77 166.61C2138.91 234.939 2138.91 235.202 2139.83 239.284C2141.28 245.559 2142.43 248.763 2145.5 254.95C2148.78 261.664 2152.29 266.535 2158.22 272.46C2174.23 288.478 2193.99 298.353 2217.19 301.995C2224.22 303.092 2240.37 303.048 2247.38 301.951C2266.7 298.922 2283.72 291.463 2298.6 279.437C2315.32 265.922 2323.88 250.694 2325.58 231.384C2325.85 228.356 2326.02 201.586 2326.02 162.221V98.063H2303.86H2281.7V155.64C2281.7 217.254 2281.7 217.56 2279.5 224.538C2274.63 240.25 2261.61 253.02 2245.81 257.628C2220.75 264.868 2193.63 250.605 2185.39 225.811C2182.88 218.263 2182.96 220.633 2182.96 156.825V98.063H2160.82H2138.65L2138.77 166.61Z" fill="#2563EA"/>
<path d="M2576.58 119.786V141.509H2669.38H2762.2V119.786V98.063H2669.38H2576.58V119.786Z" fill="#2563EA"/>
<path d="M822.621 233.322C802.962 268.342 786.111 298.359 785.189 300.026L783.479 303.011L811.3 302.924L839.077 302.792L862.641 260.882C875.631 237.843 886.205 218.885 886.25 218.754C886.25 218.445 859.086 170.392 858.692 169.954C858.517 169.823 842.279 198.347 822.621 233.322Z" fill="#2563EA"/>
<path d="M1502.79 237.404V303.011H1595.6H1688.4V281.287V259.566H1617.77H1547.11V237.623V215.681H1608.55H1669.98V193.738V171.796H1586.38H1502.79V237.404Z" fill="#2563EA"/>
<path d="M2576.58 237.404V303.011H2669.38H2762.2V281.287V259.566H2691.55H2620.89V237.623V215.681H2682.33H2743.76V193.738V171.796H2660.18H2576.58V237.404Z" fill="#2563EA"/>
<path d="M1990.31 237.625V303.012H2012.25H2034.19V237.625V172.237H2012.25H1990.31V237.625Z" fill="#2563EA"/>
<path d="M1720 246.533V302.573H1742.16H1764.33V268.344V234.069L1747.29 217.306C1737.95 208.09 1727.99 198.261 1725.14 195.539L1720 190.493V246.533Z" fill="#2563EA"/>
<mask id="path-21-outside-1_27_299" maskUnits="userSpaceOnUse" x="823.689" y="399.832" width="1898" height="114" fill="black">
<rect fill="white" x="823.689" y="399.832" width="1898" height="114"/>
<path d="M825.211 509.832V403.949H846.587V509.832H825.211ZM831.591 509.832V491.687H896.629V509.832H831.591ZM837.639 464.844V447.197H894.723V464.844H837.639ZM831.508 421.927V403.949H895.966V421.927H831.508ZM1018.11 475.531V458.464H1065.5V475.531H1018.11ZM1229.82 512.069C1215.46 512.069 1204.72 508.175 1197.6 500.387C1190.53 492.599 1186.99 481.524 1186.99 467.164V446.285C1186.99 432.035 1190.53 421.043 1197.6 413.311C1204.72 405.578 1215.44 401.712 1229.74 401.712C1233.83 401.712 1237.56 402.043 1240.93 402.706C1244.3 403.369 1247.33 404.252 1250.04 405.357C1252.8 406.406 1255.2 407.566 1257.25 408.837L1258.91 427.975C1255.65 425.987 1251.97 424.275 1247.89 422.839C1243.8 421.402 1239.02 420.684 1233.55 420.684C1225.38 420.684 1219.28 422.977 1215.24 427.561C1211.21 432.145 1209.2 438.608 1209.2 446.948V466.335C1209.2 474.62 1211.24 481.082 1215.33 485.722C1219.41 490.306 1225.74 492.599 1234.3 492.599C1239.66 492.599 1244.41 491.881 1248.55 490.445C1252.69 489.008 1256.42 487.241 1259.73 485.142L1258.08 504.612C1256.09 505.882 1253.69 507.097 1250.87 508.257C1248.05 509.362 1244.88 510.273 1241.34 510.991C1237.86 511.709 1234.02 512.069 1229.82 512.069ZM1420.95 512.234C1406.31 512.234 1395.23 508.423 1387.72 500.801C1380.27 493.123 1376.54 482.159 1376.54 467.909V446.368C1376.54 432.063 1380.27 421.043 1387.72 413.311C1395.23 405.578 1406.31 401.712 1420.95 401.712C1435.58 401.712 1446.63 405.578 1454.09 413.311C1461.6 421.043 1465.35 432.063 1465.35 446.368V467.909C1465.35 482.159 1461.63 493.123 1454.17 500.801C1446.71 508.423 1435.64 512.234 1420.95 512.234ZM1420.95 494.173C1428.4 494.173 1433.98 491.963 1437.68 487.545C1441.38 483.126 1443.23 476.912 1443.23 468.903V445.374C1443.23 437.089 1441.38 430.737 1437.68 426.318C1433.98 421.844 1428.4 419.607 1420.95 419.607C1413.54 419.607 1407.99 421.844 1404.29 426.318C1400.59 430.737 1398.74 437.089 1398.74 445.374V468.903C1398.74 476.912 1400.59 483.126 1404.29 487.545C1407.99 491.963 1413.54 494.173 1420.95 494.173ZM1587.09 509.832L1590.57 403.949H1621.89L1641.77 471.306H1642.85L1662.65 403.949H1693.88L1697.44 509.832H1676.4L1675.41 471.72L1674.5 427.727H1673.17L1652.37 497.487H1632.16L1611.28 427.727H1609.95L1609.04 471.803L1608.13 509.832H1587.09ZM1821.94 509.832L1825.42 403.949H1856.74L1876.62 471.306H1877.7L1897.5 403.949H1928.74L1932.3 509.832H1911.26L1910.26 471.72L1909.35 427.727H1908.02L1887.23 497.487H1867.01L1846.14 427.727H1844.81L1843.9 471.803L1842.99 509.832H1821.94ZM2058.12 509.832V403.949H2079.5V509.832H2058.12ZM2064.5 509.832V491.687H2129.54V509.832H2064.5ZM2070.55 464.844V447.197H2127.64V464.844H2070.55ZM2064.42 421.927V403.949H2128.88V421.927H2064.42ZM2313.4 509.832L2311 489.202C2310.62 485.501 2309.84 482.408 2308.68 479.923C2307.52 477.437 2305.78 475.559 2303.46 474.289C2301.14 472.963 2297.94 472.3 2293.85 472.3L2268.25 472.217V455.482L2295.18 455.399C2301.2 455.399 2305.51 454.018 2308.1 451.256C2310.75 448.439 2312.08 444.435 2312.08 439.243V437.254C2312.08 432.118 2310.75 428.224 2308.1 425.573C2305.51 422.866 2301.14 421.513 2295.01 421.513H2268V403.949H2298.08C2310.5 403.949 2319.56 406.462 2325.25 411.488C2331 416.514 2333.87 423.667 2333.87 432.946V435.266C2333.87 442.226 2332.18 447.749 2328.81 451.836C2325.45 455.923 2320.09 458.354 2312.74 459.127V462.11L2306.69 459.127C2312.99 459.569 2317.85 460.895 2321.28 463.104C2324.76 465.313 2327.3 468.379 2328.9 472.3C2330.5 476.167 2331.71 480.972 2332.54 486.716L2335.77 509.832H2313.4ZM2253.17 509.832V403.949H2274.38V461.447L2274.55 469.483V509.832H2253.17ZM2496.23 512.069C2481.87 512.069 2471.13 508.175 2464 500.387C2456.94 492.599 2453.4 481.524 2453.4 467.164V446.285C2453.4 432.035 2456.94 421.043 2464 413.311C2471.13 405.578 2481.85 401.712 2496.15 401.712C2500.24 401.712 2503.97 402.043 2507.34 402.706C2510.7 403.369 2513.74 404.252 2516.45 405.357C2519.21 406.406 2521.61 407.566 2523.66 408.837L2525.31 427.975C2522.06 425.987 2518.38 424.275 2514.3 422.839C2510.21 421.402 2505.43 420.684 2499.96 420.684C2491.79 420.684 2485.68 422.977 2481.65 427.561C2477.62 432.145 2475.6 438.608 2475.6 446.948V466.335C2475.6 474.62 2477.65 481.082 2481.73 485.722C2485.82 490.306 2492.15 492.599 2500.71 492.599C2506.07 492.599 2510.82 491.881 2514.96 490.445C2519.1 489.008 2522.83 487.241 2526.14 485.142L2524.49 504.612C2522.5 505.882 2520.09 507.097 2517.28 508.257C2514.46 509.362 2511.28 510.273 2507.75 510.991C2504.27 511.709 2500.43 512.069 2496.23 512.069ZM2648.45 509.832V403.949H2669.82V509.832H2648.45ZM2654.83 509.832V491.687H2719.86V509.832H2654.83ZM2660.87 464.844V447.197H2717.96V464.844H2660.87ZM2654.74 421.927V403.949H2719.2V421.927H2654.74Z"/>
</mask>
<path d="M825.211 509.832V403.949H846.587V509.832H825.211ZM831.591 509.832V491.687H896.629V509.832H831.591ZM837.639 464.844V447.197H894.723V464.844H837.639ZM831.508 421.927V403.949H895.966V421.927H831.508ZM1018.11 475.531V458.464H1065.5V475.531H1018.11ZM1229.82 512.069C1215.46 512.069 1204.72 508.175 1197.6 500.387C1190.53 492.599 1186.99 481.524 1186.99 467.164V446.285C1186.99 432.035 1190.53 421.043 1197.6 413.311C1204.72 405.578 1215.44 401.712 1229.74 401.712C1233.83 401.712 1237.56 402.043 1240.93 402.706C1244.3 403.369 1247.33 404.252 1250.04 405.357C1252.8 406.406 1255.2 407.566 1257.25 408.837L1258.91 427.975C1255.65 425.987 1251.97 424.275 1247.89 422.839C1243.8 421.402 1239.02 420.684 1233.55 420.684C1225.38 420.684 1219.28 422.977 1215.24 427.561C1211.21 432.145 1209.2 438.608 1209.2 446.948V466.335C1209.2 474.62 1211.24 481.082 1215.33 485.722C1219.41 490.306 1225.74 492.599 1234.3 492.599C1239.66 492.599 1244.41 491.881 1248.55 490.445C1252.69 489.008 1256.42 487.241 1259.73 485.142L1258.08 504.612C1256.09 505.882 1253.69 507.097 1250.87 508.257C1248.05 509.362 1244.88 510.273 1241.34 510.991C1237.86 511.709 1234.02 512.069 1229.82 512.069ZM1420.95 512.234C1406.31 512.234 1395.23 508.423 1387.72 500.801C1380.27 493.123 1376.54 482.159 1376.54 467.909V446.368C1376.54 432.063 1380.27 421.043 1387.72 413.311C1395.23 405.578 1406.31 401.712 1420.95 401.712C1435.58 401.712 1446.63 405.578 1454.09 413.311C1461.6 421.043 1465.35 432.063 1465.35 446.368V467.909C1465.35 482.159 1461.63 493.123 1454.17 500.801C1446.71 508.423 1435.64 512.234 1420.95 512.234ZM1420.95 494.173C1428.4 494.173 1433.98 491.963 1437.68 487.545C1441.38 483.126 1443.23 476.912 1443.23 468.903V445.374C1443.23 437.089 1441.38 430.737 1437.68 426.318C1433.98 421.844 1428.4 419.607 1420.95 419.607C1413.54 419.607 1407.99 421.844 1404.29 426.318C1400.59 430.737 1398.74 437.089 1398.74 445.374V468.903C1398.74 476.912 1400.59 483.126 1404.29 487.545C1407.99 491.963 1413.54 494.173 1420.95 494.173ZM1587.09 509.832L1590.57 403.949H1621.89L1641.77 471.306H1642.85L1662.65 403.949H1693.88L1697.44 509.832H1676.4L1675.41 471.72L1674.5 427.727H1673.17L1652.37 497.487H1632.16L1611.28 427.727H1609.95L1609.04 471.803L1608.13 509.832H1587.09ZM1821.94 509.832L1825.42 403.949H1856.74L1876.62 471.306H1877.7L1897.5 403.949H1928.74L1932.3 509.832H1911.26L1910.26 471.72L1909.35 427.727H1908.02L1887.23 497.487H1867.01L1846.14 427.727H1844.81L1843.9 471.803L1842.99 509.832H1821.94ZM2058.12 509.832V403.949H2079.5V509.832H2058.12ZM2064.5 509.832V491.687H2129.54V509.832H2064.5ZM2070.55 464.844V447.197H2127.64V464.844H2070.55ZM2064.42 421.927V403.949H2128.88V421.927H2064.42ZM2313.4 509.832L2311 489.202C2310.62 485.501 2309.84 482.408 2308.68 479.923C2307.52 477.437 2305.78 475.559 2303.46 474.289C2301.14 472.963 2297.94 472.3 2293.85 472.3L2268.25 472.217V455.482L2295.18 455.399C2301.2 455.399 2305.51 454.018 2308.1 451.256C2310.75 448.439 2312.08 444.435 2312.08 439.243V437.254C2312.08 432.118 2310.75 428.224 2308.1 425.573C2305.51 422.866 2301.14 421.513 2295.01 421.513H2268V403.949H2298.08C2310.5 403.949 2319.56 406.462 2325.25 411.488C2331 416.514 2333.87 423.667 2333.87 432.946V435.266C2333.87 442.226 2332.18 447.749 2328.81 451.836C2325.45 455.923 2320.09 458.354 2312.74 459.127V462.11L2306.69 459.127C2312.99 459.569 2317.85 460.895 2321.28 463.104C2324.76 465.313 2327.3 468.379 2328.9 472.3C2330.5 476.167 2331.71 480.972 2332.54 486.716L2335.77 509.832H2313.4ZM2253.17 509.832V403.949H2274.38V461.447L2274.55 469.483V509.832H2253.17ZM2496.23 512.069C2481.87 512.069 2471.13 508.175 2464 500.387C2456.94 492.599 2453.4 481.524 2453.4 467.164V446.285C2453.4 432.035 2456.94 421.043 2464 413.311C2471.13 405.578 2481.85 401.712 2496.15 401.712C2500.24 401.712 2503.97 402.043 2507.34 402.706C2510.7 403.369 2513.74 404.252 2516.45 405.357C2519.21 406.406 2521.61 407.566 2523.66 408.837L2525.31 427.975C2522.06 425.987 2518.38 424.275 2514.3 422.839C2510.21 421.402 2505.43 420.684 2499.96 420.684C2491.79 420.684 2485.68 422.977 2481.65 427.561C2477.62 432.145 2475.6 438.608 2475.6 446.948V466.335C2475.6 474.62 2477.65 481.082 2481.73 485.722C2485.82 490.306 2492.15 492.599 2500.71 492.599C2506.07 492.599 2510.82 491.881 2514.96 490.445C2519.1 489.008 2522.83 487.241 2526.14 485.142L2524.49 504.612C2522.5 505.882 2520.09 507.097 2517.28 508.257C2514.46 509.362 2511.28 510.273 2507.75 510.991C2504.27 511.709 2500.43 512.069 2496.23 512.069ZM2648.45 509.832V403.949H2669.82V509.832H2648.45ZM2654.83 509.832V491.687H2719.86V509.832H2654.83ZM2660.87 464.844V447.197H2717.96V464.844H2660.87ZM2654.74 421.927V403.949H2719.2V421.927H2654.74Z" fill="black"/>
<path d="M825.211 509.832H824.211V510.832H825.211V509.832ZM825.211 403.949V402.949H824.211V403.949H825.211ZM846.587 403.949H847.587V402.949H846.587V403.949ZM846.587 509.832V510.832H847.587V509.832H846.587ZM831.591 509.832H830.591V510.832H831.591V509.832ZM831.591 491.687V490.687H830.591V491.687H831.591ZM896.629 491.687H897.629V490.687H896.629V491.687ZM896.629 509.832V510.832H897.629V509.832H896.629ZM837.639 464.844H836.639V465.844H837.639V464.844ZM837.639 447.197V446.197H836.639V447.197H837.639ZM894.723 447.197H895.723V446.197H894.723V447.197ZM894.723 464.844V465.844H895.723V464.844H894.723ZM831.508 421.927H830.508V422.927H831.508V421.927ZM831.508 403.949V402.949H830.508V403.949H831.508ZM895.966 403.949H896.966V402.949H895.966V403.949ZM895.966 421.927V422.927H896.966V421.927H895.966ZM825.211 509.832H826.211V403.949H825.211H824.211V509.832H825.211ZM825.211 403.949V404.949H846.587V403.949V402.949H825.211V403.949ZM846.587 403.949H845.587V509.832H846.587H847.587V403.949H846.587ZM846.587 509.832V508.832H825.211V509.832V510.832H846.587V509.832ZM831.591 509.832H832.591V491.687H831.591H830.591V509.832H831.591ZM831.591 491.687V492.687H896.629V491.687V490.687H831.591V491.687ZM896.629 491.687H895.629V509.832H896.629H897.629V491.687H896.629ZM896.629 509.832V508.832H831.591V509.832V510.832H896.629V509.832ZM837.639 464.844H838.639V447.197H837.639H836.639V464.844H837.639ZM837.639 447.197V448.197H894.723V447.197V446.197H837.639V447.197ZM894.723 447.197H893.723V464.844H894.723H895.723V447.197H894.723ZM894.723 464.844V463.844H837.639V464.844V465.844H894.723V464.844ZM831.508 421.927H832.508V403.949H831.508H830.508V421.927H831.508ZM831.508 403.949V404.949H895.966V403.949V402.949H831.508V403.949ZM895.966 403.949H894.966V421.927H895.966H896.966V403.949H895.966ZM895.966 421.927V420.927H831.508V421.927V422.927H895.966V421.927ZM1018.11 475.531H1017.11V476.531H1018.11V475.531ZM1018.11 458.464V457.464H1017.11V458.464H1018.11ZM1065.5 458.464H1066.5V457.464H1065.5V458.464ZM1065.5 475.531V476.531H1066.5V475.531H1065.5ZM1018.11 475.531H1019.11V458.464H1018.11H1017.11V475.531H1018.11ZM1018.11 458.464V459.464H1065.5V458.464V457.464H1018.11V458.464ZM1065.5 458.464H1064.5V475.531H1065.5H1066.5V458.464H1065.5ZM1065.5 475.531V474.531H1018.11V475.531V476.531H1065.5V475.531ZM1197.6 500.387L1196.86 501.059L1196.86 501.062L1197.6 500.387ZM1197.6 413.311L1196.86 412.633L1196.86 412.636L1197.6 413.311ZM1240.93 402.706L1241.12 401.725L1241.12 401.725L1240.93 402.706ZM1250.04 405.357L1249.66 406.283L1249.67 406.288L1249.69 406.292L1250.04 405.357ZM1257.25 408.837L1258.24 408.751L1258.2 408.252L1257.78 407.987L1257.25 408.837ZM1258.91 427.975L1258.38 428.829L1260.07 429.859L1259.9 427.889L1258.91 427.975ZM1215.24 427.561L1215.99 428.221L1215.99 428.221L1215.24 427.561ZM1215.33 485.722L1214.58 486.383L1214.58 486.388L1215.33 485.722ZM1248.55 490.445L1248.88 491.389L1248.88 491.389L1248.55 490.445ZM1259.73 485.142L1260.73 485.227L1260.9 483.219L1259.2 484.297L1259.73 485.142ZM1258.08 504.612L1258.62 505.455L1259.03 505.189L1259.07 504.697L1258.08 504.612ZM1250.87 508.257L1251.23 509.188L1251.24 509.185L1251.25 509.182L1250.87 508.257ZM1241.34 510.991L1241.14 510.011L1241.14 510.012L1241.34 510.991ZM1229.82 512.069V511.069C1215.64 511.069 1205.21 507.226 1198.33 499.712L1197.6 500.387L1196.86 501.062C1204.23 509.123 1215.29 513.069 1229.82 513.069V512.069ZM1197.6 500.387L1198.34 499.714C1191.49 492.169 1187.99 481.367 1187.99 467.164H1186.99H1185.99C1185.99 481.681 1189.57 493.029 1196.86 501.059L1197.6 500.387ZM1186.99 467.164H1187.99V446.285H1186.99H1185.99V467.164H1186.99ZM1186.99 446.285H1187.99C1187.99 432.194 1191.49 421.476 1198.33 413.985L1197.6 413.311L1196.86 412.636C1189.57 420.611 1185.99 431.876 1185.99 446.285H1186.99ZM1197.6 413.311L1198.33 413.988C1205.21 406.527 1215.61 402.712 1229.74 402.712V401.712V400.712C1215.26 400.712 1204.24 404.629 1196.86 412.633L1197.6 413.311ZM1229.74 401.712V402.712C1233.78 402.712 1237.44 403.039 1240.73 403.687L1240.93 402.706L1241.12 401.725C1237.68 401.047 1233.88 400.712 1229.74 400.712V401.712ZM1240.93 402.706L1240.73 403.687C1244.05 404.339 1247.03 405.206 1249.66 406.283L1250.04 405.357L1250.42 404.431C1247.64 403.298 1244.54 402.398 1241.12 401.725L1240.93 402.706ZM1250.04 405.357L1249.69 406.292C1252.4 407.323 1254.74 408.456 1256.72 409.686L1257.25 408.837L1257.78 407.987C1255.67 406.676 1253.2 405.49 1250.4 404.422L1250.04 405.357ZM1257.25 408.837L1256.25 408.923L1257.91 428.061L1258.91 427.975L1259.9 427.889L1258.24 408.751L1257.25 408.837ZM1258.91 427.975L1259.43 427.122C1256.1 425.092 1252.36 423.351 1248.22 421.895L1247.89 422.839L1247.55 423.782C1251.58 425.198 1255.19 426.881 1258.38 428.829L1258.91 427.975ZM1247.89 422.839L1248.22 421.895C1244 420.413 1239.11 419.684 1233.55 419.684V420.684V421.684C1238.94 421.684 1243.6 422.392 1247.55 423.782L1247.89 422.839ZM1233.55 420.684V419.684C1225.19 419.684 1218.77 422.034 1214.49 426.901L1215.24 427.561L1215.99 428.221C1219.78 423.92 1225.56 421.684 1233.55 421.684V420.684ZM1215.24 427.561L1214.49 426.901C1210.25 431.725 1208.2 438.454 1208.2 446.948H1209.2H1210.2C1210.2 438.761 1212.17 432.566 1215.99 428.221L1215.24 427.561ZM1209.2 446.948H1208.2V466.335H1209.2H1210.2V446.948H1209.2ZM1209.2 466.335H1208.2C1208.2 474.78 1210.28 481.506 1214.58 486.383L1215.33 485.722L1216.08 485.061C1212.2 480.658 1210.2 474.46 1210.2 466.335H1209.2ZM1215.33 485.722L1214.58 486.388C1218.92 491.258 1225.57 493.599 1234.3 493.599V492.599V491.599C1225.91 491.599 1219.9 489.355 1216.07 485.057L1215.33 485.722ZM1234.3 492.599V493.599C1239.74 493.599 1244.61 492.869 1248.88 491.389L1248.55 490.445L1248.22 489.5C1244.2 490.892 1239.57 491.599 1234.3 491.599V492.599ZM1248.55 490.445L1248.88 491.389C1253.08 489.931 1256.88 488.132 1260.27 485.987L1259.73 485.142L1259.2 484.297C1255.96 486.35 1252.3 488.086 1248.22 489.5L1248.55 490.445ZM1259.73 485.142L1258.74 485.057L1257.08 504.527L1258.08 504.612L1259.07 504.697L1260.73 485.227L1259.73 485.142ZM1258.08 504.612L1257.54 503.769C1255.61 505 1253.27 506.189 1250.49 507.333L1250.87 508.257L1251.25 509.182C1254.11 508.006 1256.56 506.765 1258.62 505.455L1258.08 504.612ZM1250.87 508.257L1250.5 507.326C1247.75 508.406 1244.63 509.303 1241.14 510.011L1241.34 510.991L1241.54 511.971C1245.12 511.244 1248.35 510.318 1251.23 509.188L1250.87 508.257ZM1241.34 510.991L1241.14 510.012C1237.74 510.714 1233.97 511.069 1229.82 511.069V512.069V513.069C1234.08 513.069 1237.99 512.705 1241.54 511.971L1241.34 510.991ZM1387.72 500.801L1387.01 501.498L1387.01 501.503L1387.72 500.801ZM1387.72 413.311L1387.01 412.614L1387 412.617L1387.72 413.311ZM1454.09 413.311L1453.37 414.005L1453.37 414.007L1454.09 413.311ZM1454.17 500.801L1454.88 501.5L1454.89 501.498L1454.17 500.801ZM1437.68 487.545L1438.45 488.187L1438.45 488.187L1437.68 487.545ZM1437.68 426.318L1436.91 426.956L1436.91 426.96L1437.68 426.318ZM1404.29 426.318L1405.06 426.96L1405.06 426.956L1404.29 426.318ZM1404.29 487.545L1405.06 486.903L1405.06 486.903L1404.29 487.545ZM1420.95 512.234V511.234C1406.48 511.234 1395.7 507.469 1388.43 500.099L1387.72 500.801L1387.01 501.503C1394.77 509.377 1406.14 513.234 1420.95 513.234V512.234ZM1387.72 500.801L1388.44 500.104C1381.22 492.668 1377.54 481.988 1377.54 467.909H1376.54H1375.54C1375.54 482.331 1379.31 493.578 1387.01 501.498L1387.72 500.801ZM1376.54 467.909H1377.54V446.368H1376.54H1375.54V467.909H1376.54ZM1376.54 446.368H1377.54C1377.54 432.233 1381.22 421.496 1388.44 414.005L1387.72 413.311L1387 412.617C1379.31 420.591 1375.54 431.892 1375.54 446.368H1376.54ZM1387.72 413.311L1388.44 414.007C1395.7 406.53 1406.48 402.712 1420.95 402.712V401.712V400.712C1406.14 400.712 1394.76 404.626 1387.01 412.614L1387.72 413.311ZM1420.95 401.712V402.712C1435.41 402.712 1446.16 406.53 1453.37 414.005L1454.09 413.311L1454.81 412.617C1447.1 404.626 1435.75 400.712 1420.95 400.712V401.712ZM1454.09 413.311L1453.37 414.007C1460.65 421.499 1464.35 432.235 1464.35 446.368H1465.35H1466.35C1466.35 431.89 1462.55 420.588 1454.8 412.614L1454.09 413.311ZM1465.35 446.368H1464.35V467.909H1465.35H1466.35V446.368H1465.35ZM1465.35 467.909H1464.35C1464.35 481.988 1460.67 492.668 1453.45 500.104L1454.17 500.801L1454.89 501.498C1462.58 493.578 1466.35 482.331 1466.35 467.909H1465.35ZM1454.17 500.801L1453.45 500.102C1446.25 507.468 1435.47 511.234 1420.95 511.234V512.234V513.234C1435.8 513.234 1447.18 509.378 1454.88 501.5L1454.17 500.801ZM1420.95 494.173V495.173C1428.6 495.173 1434.5 492.895 1438.45 488.187L1437.68 487.545L1436.91 486.903C1433.46 491.031 1428.2 493.173 1420.95 493.173V494.173ZM1437.68 487.545L1438.45 488.187C1442.35 483.529 1444.23 477.056 1444.23 468.903H1443.23H1442.23C1442.23 476.768 1440.42 482.723 1436.91 486.903L1437.68 487.545ZM1443.23 468.903H1444.23V445.374H1443.23H1442.23V468.903H1443.23ZM1443.23 445.374H1444.23C1444.23 436.955 1442.35 430.339 1438.45 425.676L1437.68 426.318L1436.91 426.96C1440.41 431.135 1442.23 437.223 1442.23 445.374H1443.23ZM1437.68 426.318L1438.45 425.681C1434.51 420.915 1428.61 418.607 1420.95 418.607V419.607V420.607C1428.2 420.607 1433.45 422.774 1436.91 426.956L1437.68 426.318ZM1420.95 419.607V418.607C1413.33 418.607 1407.46 420.917 1403.52 425.681L1404.29 426.318L1405.06 426.956C1408.52 422.772 1413.75 420.607 1420.95 420.607V419.607ZM1404.29 426.318L1403.53 425.676C1399.62 430.339 1397.74 436.955 1397.74 445.374H1398.74H1399.74C1399.74 437.223 1401.56 431.135 1405.06 426.96L1404.29 426.318ZM1398.74 445.374H1397.74V468.903H1398.74H1399.74V445.374H1398.74ZM1398.74 468.903H1397.74C1397.74 477.056 1399.63 483.529 1403.53 488.187L1404.29 487.545L1405.06 486.903C1401.56 482.723 1399.74 476.768 1399.74 468.903H1398.74ZM1404.29 487.545L1403.53 488.187C1407.47 492.894 1413.34 495.173 1420.95 495.173V494.173V493.173C1413.75 493.173 1408.52 491.033 1405.06 486.903L1404.29 487.545ZM1587.09 509.832L1586.09 509.799L1586.05 510.832H1587.09V509.832ZM1590.57 403.949V402.949H1589.6L1589.57 403.916L1590.57 403.949ZM1621.89 403.949L1622.84 403.665L1622.63 402.949H1621.89V403.949ZM1641.77 471.306L1640.81 471.589L1641.02 472.306H1641.77V471.306ZM1642.85 471.306V472.306H1643.59L1643.81 471.588L1642.85 471.306ZM1662.65 403.949V402.949H1661.9L1661.69 403.667L1662.65 403.949ZM1693.88 403.949L1694.88 403.915L1694.85 402.949H1693.88V403.949ZM1697.44 509.832V510.832H1698.48L1698.44 509.798L1697.44 509.832ZM1676.4 509.832L1675.4 509.858L1675.43 510.832H1676.4V509.832ZM1675.41 471.72L1674.41 471.741L1674.41 471.746L1675.41 471.72ZM1674.5 427.727L1675.5 427.706L1675.47 426.727H1674.5V427.727ZM1673.17 427.727V426.727H1672.42L1672.21 427.441L1673.17 427.727ZM1652.37 497.487V498.487H1653.12L1653.33 497.772L1652.37 497.487ZM1632.16 497.487L1631.2 497.774L1631.41 498.487H1632.16V497.487ZM1611.28 427.727L1612.24 427.44L1612.02 426.727H1611.28V427.727ZM1609.95 427.727V426.727H1608.98L1608.95 427.706L1609.95 427.727ZM1609.04 471.803L1610.04 471.827L1610.04 471.824L1609.04 471.803ZM1608.13 509.832V510.832H1609.11L1609.13 509.856L1608.13 509.832ZM1587.09 509.832L1588.09 509.864L1591.57 403.981L1590.57 403.949L1589.57 403.916L1586.09 509.799L1587.09 509.832ZM1590.57 403.949V404.949H1621.89V403.949V402.949H1590.57V403.949ZM1621.89 403.949L1620.93 404.232L1640.81 471.589L1641.77 471.306L1642.73 471.023L1622.84 403.665L1621.89 403.949ZM1641.77 471.306V472.306H1642.85V471.306V470.306H1641.77V471.306ZM1642.85 471.306L1643.81 471.588L1663.61 404.231L1662.65 403.949L1661.69 403.667L1641.89 471.024L1642.85 471.306ZM1662.65 403.949V404.949H1693.88V403.949V402.949H1662.65V403.949ZM1693.88 403.949L1692.88 403.982L1696.45 509.865L1697.44 509.832L1698.44 509.798L1694.88 403.915L1693.88 403.949ZM1697.44 509.832V508.832H1676.4V509.832V510.832H1697.44V509.832ZM1676.4 509.832L1677.4 509.805L1676.41 471.694L1675.41 471.72L1674.41 471.746L1675.4 509.858L1676.4 509.832ZM1675.41 471.72L1676.41 471.7L1675.5 427.706L1674.5 427.727L1673.5 427.747L1674.41 471.741L1675.41 471.72ZM1674.5 427.727V426.727H1673.17V427.727V428.727H1674.5V427.727ZM1673.17 427.727L1672.21 427.441L1651.42 497.201L1652.37 497.487L1653.33 497.772L1674.13 428.012L1673.17 427.727ZM1652.37 497.487V496.487H1632.16V497.487V498.487H1652.37V497.487ZM1632.16 497.487L1633.12 497.2L1612.24 427.44L1611.28 427.727L1610.32 428.013L1631.2 497.774L1632.16 497.487ZM1611.28 427.727V426.727H1609.95V427.727V428.727H1611.28V427.727ZM1609.95 427.727L1608.95 427.706L1608.04 471.782L1609.04 471.803L1610.04 471.824L1610.95 427.747L1609.95 427.727ZM1609.04 471.803L1608.04 471.779L1607.13 509.808L1608.13 509.832L1609.13 509.856L1610.04 471.827L1609.04 471.803ZM1608.13 509.832V508.832H1587.09V509.832V510.832H1608.13V509.832ZM1821.94 509.832L1820.94 509.799L1820.91 510.832H1821.94V509.832ZM1825.42 403.949V402.949H1824.46L1824.42 403.916L1825.42 403.949ZM1856.74 403.949L1857.7 403.665L1857.49 402.949H1856.74V403.949ZM1876.62 471.306L1875.67 471.589L1875.88 472.306H1876.62V471.306ZM1877.7 471.306V472.306H1878.45L1878.66 471.588L1877.7 471.306ZM1897.5 403.949V402.949H1896.75L1896.54 403.667L1897.5 403.949ZM1928.74 403.949L1929.74 403.915L1929.7 402.949H1928.74V403.949ZM1932.3 509.832V510.832H1933.33L1933.3 509.798L1932.3 509.832ZM1911.26 509.832L1910.26 509.858L1910.28 510.832H1911.26V509.832ZM1910.26 471.72L1909.26 471.741L1909.26 471.746L1910.26 471.72ZM1909.35 427.727L1910.35 427.706L1910.33 426.727H1909.35V427.727ZM1908.02 427.727V426.727H1907.28L1907.07 427.441L1908.02 427.727ZM1887.23 497.487V498.487H1887.97L1888.19 497.772L1887.23 497.487ZM1867.01 497.487L1866.06 497.774L1866.27 498.487H1867.01V497.487ZM1846.14 427.727L1847.09 427.44L1846.88 426.727H1846.14V427.727ZM1844.81 427.727V426.727H1843.83L1843.81 427.706L1844.81 427.727ZM1843.9 471.803L1844.9 471.827L1844.9 471.824L1843.9 471.803ZM1842.99 509.832V510.832H1843.96L1843.99 509.856L1842.99 509.832ZM1821.94 509.832L1822.94 509.864L1826.42 403.981L1825.42 403.949L1824.42 403.916L1820.94 509.799L1821.94 509.832ZM1825.42 403.949V404.949H1856.74V403.949V402.949H1825.42V403.949ZM1856.74 403.949L1855.78 404.232L1875.67 471.589L1876.62 471.306L1877.58 471.023L1857.7 403.665L1856.74 403.949ZM1876.62 471.306V472.306H1877.7V471.306V470.306H1876.62V471.306ZM1877.7 471.306L1878.66 471.588L1898.46 404.231L1897.5 403.949L1896.54 403.667L1876.74 471.024L1877.7 471.306ZM1897.5 403.949V404.949H1928.74V403.949V402.949H1897.5V403.949ZM1928.74 403.949L1927.74 403.982L1931.3 509.865L1932.3 509.832L1933.3 509.798L1929.74 403.915L1928.74 403.949ZM1932.3 509.832V508.832H1911.26V509.832V510.832H1932.3V509.832ZM1911.26 509.832L1912.26 509.805L1911.26 471.694L1910.26 471.72L1909.26 471.746L1910.26 509.858L1911.26 509.832ZM1910.26 471.72L1911.26 471.7L1910.35 427.706L1909.35 427.727L1908.35 427.747L1909.26 471.741L1910.26 471.72ZM1909.35 427.727V426.727H1908.02V427.727V428.727H1909.35V427.727ZM1908.02 427.727L1907.07 427.441L1886.27 497.201L1887.23 497.487L1888.19 497.772L1908.98 428.012L1908.02 427.727ZM1887.23 497.487V496.487H1867.01V497.487V498.487H1887.23V497.487ZM1867.01 497.487L1867.97 497.2L1847.09 427.44L1846.14 427.727L1845.18 428.013L1866.06 497.774L1867.01 497.487ZM1846.14 427.727V426.727H1844.81V427.727V428.727H1846.14V427.727ZM1844.81 427.727L1843.81 427.706L1842.9 471.782L1843.9 471.803L1844.9 471.824L1845.81 427.747L1844.81 427.727ZM1843.9 471.803L1842.9 471.779L1841.99 509.808L1842.99 509.832L1843.99 509.856L1844.9 471.827L1843.9 471.803ZM1842.99 509.832V508.832H1821.94V509.832V510.832H1842.99V509.832ZM2058.12 509.832H2057.12V510.832H2058.12V509.832ZM2058.12 403.949V402.949H2057.12V403.949H2058.12ZM2079.5 403.949H2080.5V402.949H2079.5V403.949ZM2079.5 509.832V510.832H2080.5V509.832H2079.5ZM2064.5 509.832H2063.5V510.832H2064.5V509.832ZM2064.5 491.687V490.687H2063.5V491.687H2064.5ZM2129.54 491.687H2130.54V490.687H2129.54V491.687ZM2129.54 509.832V510.832H2130.54V509.832H2129.54ZM2070.55 464.844H2069.55V465.844H2070.55V464.844ZM2070.55 447.197V446.197H2069.55V447.197H2070.55ZM2127.64 447.197H2128.64V446.197H2127.64V447.197ZM2127.64 464.844V465.844H2128.64V464.844H2127.64ZM2064.42 421.927H2063.42V422.927H2064.42V421.927ZM2064.42 403.949V402.949H2063.42V403.949H2064.42ZM2128.88 403.949H2129.88V402.949H2128.88V403.949ZM2128.88 421.927V422.927H2129.88V421.927H2128.88ZM2058.12 509.832H2059.12V403.949H2058.12H2057.12V509.832H2058.12ZM2058.12 403.949V404.949H2079.5V403.949V402.949H2058.12V403.949ZM2079.5 403.949H2078.5V509.832H2079.5H2080.5V403.949H2079.5ZM2079.5 509.832V508.832H2058.12V509.832V510.832H2079.5V509.832ZM2064.5 509.832H2065.5V491.687H2064.5H2063.5V509.832H2064.5ZM2064.5 491.687V492.687H2129.54V491.687V490.687H2064.5V491.687ZM2129.54 491.687H2128.54V509.832H2129.54H2130.54V491.687H2129.54ZM2129.54 509.832V508.832H2064.5V509.832V510.832H2129.54V509.832ZM2070.55 464.844H2071.55V447.197H2070.55H2069.55V464.844H2070.55ZM2070.55 447.197V448.197H2127.64V447.197V446.197H2070.55V447.197ZM2127.64 447.197H2126.64V464.844H2127.64H2128.64V447.197H2127.64ZM2127.64 464.844V463.844H2070.55V464.844V465.844H2127.64V464.844ZM2064.42 421.927H2065.42V403.949H2064.42H2063.42V421.927H2064.42ZM2064.42 403.949V404.949H2128.88V403.949V402.949H2064.42V403.949ZM2128.88 403.949H2127.88V421.927H2128.88H2129.88V403.949H2128.88ZM2128.88 421.927V420.927H2064.42V421.927V422.927H2128.88V421.927ZM2313.4 509.832L2312.41 509.947L2312.51 510.832H2313.4V509.832ZM2311 489.202L2310.01 489.306L2310.01 489.317L2311 489.202ZM2308.68 479.923L2309.59 479.5L2309.59 479.5L2308.68 479.923ZM2303.46 474.289L2302.97 475.157L2302.97 475.161L2302.98 475.166L2303.46 474.289ZM2293.85 472.3L2293.85 473.3H2293.85V472.3ZM2268.25 472.217H2267.25V473.214L2268.25 473.217L2268.25 472.217ZM2268.25 455.482L2268.25 454.482L2267.25 454.485V455.482H2268.25ZM2295.18 455.399V454.399L2295.17 454.399L2295.18 455.399ZM2308.1 451.256L2307.37 450.571L2307.37 450.571L2308.1 451.256ZM2308.1 425.573L2307.38 426.265L2307.39 426.272L2307.4 426.28L2308.1 425.573ZM2268 421.513H2267V422.513H2268V421.513ZM2268 403.949V402.949H2267V403.949H2268ZM2325.25 411.488L2324.59 412.237L2324.59 412.241L2325.25 411.488ZM2328.81 451.836L2329.59 452.472L2329.59 452.472L2328.81 451.836ZM2312.74 459.127L2312.64 458.133L2311.74 458.227V459.127H2312.74ZM2312.74 462.11L2312.3 463.007L2313.74 463.718V462.11H2312.74ZM2306.69 459.127L2306.76 458.129L2306.25 460.024L2306.69 459.127ZM2321.28 463.104L2320.73 463.944L2320.74 463.948L2321.28 463.104ZM2328.9 472.3L2327.97 472.678L2327.97 472.683L2328.9 472.3ZM2332.54 486.716L2333.53 486.578L2333.53 486.573L2332.54 486.716ZM2335.77 509.832V510.832H2336.92L2336.76 509.693L2335.77 509.832ZM2253.17 509.832H2252.17V510.832H2253.17V509.832ZM2253.17 403.949V402.949H2252.17V403.949H2253.17ZM2274.38 403.949H2275.38V402.949H2274.38V403.949ZM2274.38 461.447H2273.38V461.457L2273.38 461.467L2274.38 461.447ZM2274.55 469.483H2275.55V469.473L2275.55 469.463L2274.55 469.483ZM2274.55 509.832V510.832H2275.55V509.832H2274.55ZM2313.4 509.832L2314.4 509.716L2312 489.086L2311 489.202L2310.01 489.317L2312.41 509.947L2313.4 509.832ZM2311 489.202L2312 489.098C2311.6 485.323 2310.81 482.115 2309.59 479.5L2308.68 479.923L2307.78 480.345C2308.88 482.701 2309.63 485.679 2310.01 489.306L2311 489.202ZM2308.68 479.923L2309.59 479.5C2308.34 476.829 2306.46 474.788 2303.94 473.412L2303.46 474.289L2302.98 475.166C2305.11 476.33 2306.7 478.045 2307.78 480.345L2308.68 479.923ZM2303.46 474.289L2303.96 473.42C2301.43 471.974 2298.03 471.3 2293.85 471.3V472.3V473.3C2297.85 473.3 2300.86 473.952 2302.97 475.157L2303.46 474.289ZM2293.85 472.3L2293.86 471.3L2268.25 471.217L2268.25 472.217L2268.25 473.217L2293.85 473.3L2293.85 472.3ZM2268.25 472.217H2269.25V455.482H2268.25H2267.25V472.217H2268.25ZM2268.25 455.482L2268.25 456.482L2295.18 456.399L2295.18 455.399L2295.17 454.399L2268.25 454.482L2268.25 455.482ZM2295.18 455.399V456.399C2301.32 456.399 2305.96 454.996 2308.83 451.941L2308.1 451.256L2307.37 450.571C2305.05 453.04 2301.08 454.399 2295.18 454.399V455.399ZM2308.1 451.256L2308.83 451.942C2311.71 448.883 2313.08 444.601 2313.08 439.243H2312.08H2311.08C2311.08 444.269 2309.8 447.995 2307.37 450.571L2308.1 451.256ZM2312.08 439.243H2313.08V437.254H2312.08H2311.08V439.243H2312.08ZM2312.08 437.254H2313.08C2313.08 431.953 2311.71 427.765 2308.81 424.865L2308.1 425.573L2307.4 426.28C2309.8 428.683 2311.08 432.283 2311.08 437.254H2312.08ZM2308.1 425.573L2308.82 424.88C2305.95 421.883 2301.25 420.513 2295.01 420.513V421.513V422.513C2301.04 422.513 2305.06 423.849 2307.38 426.265L2308.1 425.573ZM2295.01 421.513V420.513H2268V421.513V422.513H2295.01V421.513ZM2268 421.513H2269V403.949H2268H2267V421.513H2268ZM2268 403.949V404.949H2298.08V403.949V402.949H2268V403.949ZM2298.08 403.949V404.949C2310.41 404.949 2319.17 407.448 2324.59 412.237L2325.25 411.488L2325.91 410.739C2319.96 405.475 2310.6 402.949 2298.08 402.949V403.949ZM2325.25 411.488L2324.59 412.241C2330.07 417.036 2332.87 423.888 2332.87 432.946H2333.87H2334.87C2334.87 423.446 2331.92 415.992 2325.91 410.735L2325.25 411.488ZM2333.87 432.946H2332.87V435.266H2333.87H2334.87V432.946H2333.87ZM2333.87 435.266H2332.87C2332.87 442.067 2331.22 447.341 2328.04 451.2L2328.81 451.836L2329.59 452.472C2333.14 448.156 2334.87 442.384 2334.87 435.266H2333.87ZM2328.81 451.836L2328.04 451.2C2324.9 455.017 2319.83 457.376 2312.64 458.133L2312.74 459.127L2312.85 460.122C2320.35 459.332 2325.99 456.83 2329.59 452.472L2328.81 451.836ZM2312.74 459.127H2311.74V462.11H2312.74H2313.74V459.127H2312.74ZM2312.74 462.11L2313.18 461.213L2307.14 458.23L2306.69 459.127L2306.25 460.024L2312.3 463.007L2312.74 462.11ZM2306.69 459.127L2306.62 460.125C2312.84 460.561 2317.51 461.863 2320.73 463.944L2321.28 463.104L2321.82 462.264C2318.19 459.926 2313.14 458.577 2306.76 458.129L2306.69 459.127ZM2321.28 463.104L2320.74 463.948C2324.04 466.043 2326.45 468.943 2327.97 472.678L2328.9 472.3L2329.82 471.922C2328.15 467.814 2325.47 464.583 2321.81 462.26L2321.28 463.104ZM2328.9 472.3L2327.97 472.683C2329.53 476.449 2330.73 481.168 2331.55 486.859L2332.54 486.716L2333.53 486.573C2332.7 480.776 2331.46 475.884 2329.82 471.918L2328.9 472.3ZM2332.54 486.716L2331.55 486.855L2334.78 509.97L2335.77 509.832L2336.76 509.693L2333.53 486.578L2332.54 486.716ZM2335.77 509.832V508.832H2313.4V509.832V510.832H2335.77V509.832ZM2253.17 509.832H2254.17V403.949H2253.17H2252.17V509.832H2253.17ZM2253.17 403.949V404.949H2274.38V403.949V402.949H2253.17V403.949ZM2274.38 403.949H2273.38V461.447H2274.38H2275.38V403.949H2274.38ZM2274.38 461.447L2273.38 461.467L2273.55 469.504L2274.55 469.483L2275.55 469.463L2275.38 461.426L2274.38 461.447ZM2274.55 469.483H2273.55V509.832H2274.55H2275.55V469.483H2274.55ZM2274.55 509.832V508.832H2253.17V509.832V510.832H2274.55V509.832ZM2464 500.387L2463.26 501.059L2463.27 501.062L2464 500.387ZM2464 413.311L2463.27 412.633L2463.27 412.636L2464 413.311ZM2507.34 402.706L2507.53 401.725L2507.53 401.725L2507.34 402.706ZM2516.45 405.357L2516.07 406.283L2516.08 406.288L2516.09 406.292L2516.45 405.357ZM2523.66 408.837L2524.65 408.751L2524.61 408.252L2524.19 407.987L2523.66 408.837ZM2525.31 427.975L2524.79 428.829L2526.48 429.859L2526.31 427.889L2525.31 427.975ZM2481.65 427.561L2482.4 428.221L2482.4 428.221L2481.65 427.561ZM2481.73 485.722L2480.98 486.383L2480.99 486.388L2481.73 485.722ZM2514.96 490.445L2515.29 491.389L2515.29 491.389L2514.96 490.445ZM2526.14 485.142L2527.14 485.227L2527.31 483.219L2525.61 484.297L2526.14 485.142ZM2524.49 504.612L2525.02 505.455L2525.44 505.189L2525.48 504.697L2524.49 504.612ZM2517.28 508.257L2517.64 509.188L2517.65 509.185L2517.66 509.182L2517.28 508.257ZM2507.75 510.991L2507.55 510.011L2507.55 510.012L2507.75 510.991ZM2496.23 512.069V511.069C2482.05 511.069 2471.62 507.226 2464.74 499.712L2464 500.387L2463.27 501.062C2470.64 509.123 2481.7 513.069 2496.23 513.069V512.069ZM2464 500.387L2464.75 499.714C2457.9 492.169 2454.4 481.367 2454.4 467.164H2453.4H2452.4C2452.4 481.681 2455.97 493.029 2463.26 501.059L2464 500.387ZM2453.4 467.164H2454.4V446.285H2453.4H2452.4V467.164H2453.4ZM2453.4 446.285H2454.4C2454.4 432.194 2457.89 421.476 2464.74 413.985L2464 413.311L2463.27 412.636C2455.98 420.611 2452.4 431.876 2452.4 446.285H2453.4ZM2464 413.311L2464.74 413.988C2471.62 406.527 2482.02 402.712 2496.15 402.712V401.712V400.712C2481.67 400.712 2470.64 404.629 2463.27 412.633L2464 413.311ZM2496.15 401.712V402.712C2500.19 402.712 2503.85 403.039 2507.14 403.687L2507.34 402.706L2507.53 401.725C2504.09 401.047 2500.29 400.712 2496.15 400.712V401.712ZM2507.34 402.706L2507.14 403.687C2510.46 404.339 2513.43 405.206 2516.07 406.283L2516.45 405.357L2516.83 404.431C2514.05 403.298 2510.95 402.398 2507.53 401.725L2507.34 402.706ZM2516.45 405.357L2516.09 406.292C2518.81 407.323 2521.15 408.456 2523.13 409.686L2523.66 408.837L2524.19 407.987C2522.08 406.676 2519.61 405.49 2516.8 404.422L2516.45 405.357ZM2523.66 408.837L2522.66 408.923L2524.32 428.061L2525.31 427.975L2526.31 427.889L2524.65 408.751L2523.66 408.837ZM2525.31 427.975L2525.84 427.122C2522.51 425.092 2518.77 423.351 2514.63 421.895L2514.3 422.839L2513.96 423.782C2517.99 425.198 2521.6 426.881 2524.79 428.829L2525.31 427.975ZM2514.3 422.839L2514.63 421.895C2510.41 420.413 2505.51 419.684 2499.96 419.684V420.684V421.684C2505.35 421.684 2510.01 422.392 2513.96 423.782L2514.3 422.839ZM2499.96 420.684V419.684C2491.6 419.684 2485.18 422.034 2480.9 426.901L2481.65 427.561L2482.4 428.221C2486.19 423.92 2491.97 421.684 2499.96 421.684V420.684ZM2481.65 427.561L2480.9 426.901C2476.66 431.725 2474.6 438.454 2474.6 446.948H2475.6H2476.6C2476.6 438.761 2478.58 432.566 2482.4 428.221L2481.65 427.561ZM2475.6 446.948H2474.6V466.335H2475.6H2476.6V446.948H2475.6ZM2475.6 466.335H2474.6C2474.6 474.78 2476.69 481.506 2480.98 486.383L2481.73 485.722L2482.49 485.061C2478.61 480.658 2476.6 474.46 2476.6 466.335H2475.6ZM2481.73 485.722L2480.99 486.388C2485.33 491.258 2491.98 493.599 2500.71 493.599V492.599V491.599C2492.32 491.599 2486.31 489.355 2482.48 485.057L2481.73 485.722ZM2500.71 492.599V493.599C2506.15 493.599 2511.02 492.869 2515.29 491.389L2514.96 490.445L2514.63 489.5C2510.61 490.892 2505.98 491.599 2500.71 491.599V492.599ZM2514.96 490.445L2515.29 491.389C2519.49 489.931 2523.29 488.132 2526.68 485.987L2526.14 485.142L2525.61 484.297C2522.37 486.35 2518.71 488.086 2514.63 489.5L2514.96 490.445ZM2526.14 485.142L2525.15 485.057L2523.49 504.527L2524.49 504.612L2525.48 504.697L2527.14 485.227L2526.14 485.142ZM2524.49 504.612L2523.95 503.769C2522.02 505 2519.67 506.189 2516.9 507.333L2517.28 508.257L2517.66 509.182C2520.52 508.006 2522.97 506.765 2525.02 505.455L2524.49 504.612ZM2517.28 508.257L2516.91 507.326C2514.16 508.406 2511.04 509.303 2507.55 510.011L2507.75 510.991L2507.95 511.971C2511.53 511.244 2514.76 510.318 2517.64 509.188L2517.28 508.257ZM2507.75 510.991L2507.55 510.012C2504.15 510.714 2500.38 511.069 2496.23 511.069V512.069V513.069C2500.49 513.069 2504.4 512.705 2507.95 511.971L2507.75 510.991ZM2648.45 509.832H2647.45V510.832H2648.45V509.832ZM2648.45 403.949V402.949H2647.45V403.949H2648.45ZM2669.82 403.949H2670.82V402.949H2669.82V403.949ZM2669.82 509.832V510.832H2670.82V509.832H2669.82ZM2654.83 509.832H2653.83V510.832H2654.83V509.832ZM2654.83 491.687V490.687H2653.83V491.687H2654.83ZM2719.86 491.687H2720.86V490.687H2719.86V491.687ZM2719.86 509.832V510.832H2720.86V509.832H2719.86ZM2660.87 464.844H2659.87V465.844H2660.87V464.844ZM2660.87 447.197V446.197H2659.87V447.197H2660.87ZM2717.96 447.197H2718.96V446.197H2717.96V447.197ZM2717.96 464.844V465.844H2718.96V464.844H2717.96ZM2654.74 421.927H2653.74V422.927H2654.74V421.927ZM2654.74 403.949V402.949H2653.74V403.949H2654.74ZM2719.2 403.949H2720.2V402.949H2719.2V403.949ZM2719.2 421.927V422.927H2720.2V421.927H2719.2ZM2648.45 509.832H2649.45V403.949H2648.45H2647.45V509.832H2648.45ZM2648.45 403.949V404.949H2669.82V403.949V402.949H2648.45V403.949ZM2669.82 403.949H2668.82V509.832H2669.82H2670.82V403.949H2669.82ZM2669.82 509.832V508.832H2648.45V509.832V510.832H2669.82V509.832ZM2654.83 509.832H2655.83V491.687H2654.83H2653.83V509.832H2654.83ZM2654.83 491.687V492.687H2719.86V491.687V490.687H2654.83V491.687ZM2719.86 491.687H2718.86V509.832H2719.86H2720.86V491.687H2719.86ZM2719.86 509.832V508.832H2654.83V509.832V510.832H2719.86V509.832ZM2660.87 464.844H2661.87V447.197H2660.87H2659.87V464.844H2660.87ZM2660.87 447.197V448.197H2717.96V447.197V446.197H2660.87V447.197ZM2717.96 447.197H2716.96V464.844H2717.96H2718.96V447.197H2717.96ZM2717.96 464.844V463.844H2660.87V464.844V465.844H2717.96V464.844ZM2654.74 421.927H2655.74V403.949H2654.74H2653.74V421.927H2654.74ZM2654.74 403.949V404.949H2719.2V403.949V402.949H2654.74V403.949ZM2719.2 403.949H2718.2V421.927H2719.2H2720.2V403.949H2719.2ZM2719.2 421.927V420.927H2654.74V421.927V422.927H2719.2V421.927Z" fill="black" mask="url(#path-21-outside-1_27_299)"/>
</svg>
